<?xml version="1.0" encoding="utf-8"?>
<!-- Generator: Adobe Illustrator 22.1.0, SVG Export Plug-In . SVG Version: 6.00 Build 0)  -->
<svg version="1.1" id="Layer_1" xmlns="http://www.w3.org/2000/svg" xmlns:xlink="http://www.w3.org/1999/xlink" x="0px" y="0px"
	 viewBox="0 0 612 792" style="enable-background:new 0 0 612 792;" xml:space="preserve">
<style type="text/css">
	.st0{fill:#FEFEFE;}
	.st1{fill:#D0D1D2;}
	.st2{fill:#EE5023;}
	.st3{fill:#D8AEA2;}
	.st4{fill:#D9ACA0;}
	.st5{fill:#D9AA9E;}
	.st6{fill:#EA623C;}
	.st7{fill:#EB5F37;}
	.st8{fill:#D5BCB6;}
	.st9{fill:#D2CBCA;}
	.st10{fill:#D3C6C3;}
	.st11{fill:#E86B48;}
	.st12{fill:#E37E62;}
	.st13{fill:#E86945;}
	.st14{fill:#D8B0A6;}
	.st15{fill:#DBA292;}
	.st16{fill:#EB5C34;}
	.st17{fill:#E76C4A;}
	.st18{fill:#D2C8C6;}
	.st19{fill:#D1CDCD;}
	.st20{fill:#D3C3BF;}
	.st21{fill:#D4C1BC;}
	.st22{fill:#DC9E8E;}
	.st23{fill:#EA6139;}
	.st24{fill:#D9A89B;}
	.st25{fill:#E96843;}
	.st26{fill:#DE9683;}
	.st27{fill:#E38065;}
	.st28{fill:#E2856B;}
	.st29{fill:#E08B74;}
	.st30{fill:#DF8F78;}
	.st31{fill:#E5795B;}
	.st32{fill:#D6B6AD;}
	.st33{fill:#D4BFBA;}
	.st34{fill:#D6B8B0;}
	.st35{fill:#D6BAB3;}
	.st36{fill:#D7B2A8;}
	.st37{fill:#E76E4D;}
	.st38{fill:#DE937F;}
	.st39{fill:#EE5226;}
	.st40{fill:#EC582E;}
	.st41{fill:#E18870;}
	.st42{fill:#E96540;}
	.st43{fill:#DBA495;}
	.st44{fill:#DAA698;}
	.st45{fill:#DC9C8A;}
	.st46{fill:#DD9987;}
	.st47{fill:#ED5428;}
	.st48{fill:#E28268;}
	.st49{fill:#E67151;}
	.st50{fill:#E67454;}
	.st51{fill:#D7B4AB;}
	.st52{fill:#ED552B;}
	.st53{fill:#E57656;}
	.st54{fill:#DF917C;}
	.st55{fill:#EC5A30;}
	.st56{fill:#E47B5D;}
	.st57{fill:#D0CFD0;}
	.st58{fill:#D8B1A6;}
	.st59{fill:#D1CBCA;}
	.st60{fill:#EB5E37;}
	.st61{fill:#EA6039;}
	.st62{fill:#DC9F8E;}
	.st63{fill:#E38166;}
	.st64{fill:#D4C1BD;}
	.st65{fill:#E96641;}
	.st66{fill:#DAA495;}
	.st67{fill:#E2846A;}
	.st68{fill:#DD9885;}
	.st69{fill:#D1CECE;}
	.st70{fill:#D7B3A9;}
	.st71{fill:#E37F63;}
	.st72{fill:#D0D0D0;}
	.st73{fill:#DC9B89;}
	.st74{fill:#E47D60;}
	.st75{fill:#E08C74;}
	.st76{fill:#DF907B;}
	.st77{fill:#E76E4C;}
	.st78{fill:#E86B49;}
	.st79{fill:#ED562B;}
	.st80{fill:#D9AB9E;}
	.st81{fill:#E18970;}
	.st82{fill:#ED5328;}
	.st83{fill:#E5785A;}
	.st84{fill:#D9A99B;}
	.st85{fill:#DF8E77;}
	.st86{fill:#DE937E;}
	.st87{fill:#DE9581;}
	.st88{fill:#E67252;}
	.st89{fill:#E1876E;}
	.st90{fill:#E57657;}
	.st91{fill:#E7704F;}
	.st92{fill:#492F90;}
	.st93{fill:#E76F4D;}
	.st94{fill:#E18269;}
	.st95{fill:#E86541;}
	.st96{fill:#E18369;}
	.st97{fill:#66509F;}
	.st98{fill:#CFD0D2;}
	.st99{fill:#E1856C;}
	.st100{fill:#E57555;}
	.st101{fill:#E08870;}
	.st102{fill:#E4785A;}
	.st103{fill:#E76946;}
	.st104{fill:#DF8C74;}
	.st105{fill:#DE8F7A;}
	.st106{fill:#E57253;}
	.st107{fill:#E28065;}
	.st108{fill:#E47B5E;}
	.st109{fill:#E66D4D;}
	.st110{fill:#E47557;}
	.st111{fill:#DF8871;}
	.st112{fill:#E57152;}
	.st113{fill:#E76B49;}
	.st114{fill:#E27E62;}
	.st115{fill:#E4785B;}
	.st116{fill:#D89283;}
	.st117{fill:#E27B5F;}
	.st118{fill:#E0856C;}
	.st119{fill:#DE866F;}
</style>
<g>
	<g>
		<path class="st0" d="M97.2,217c0-1.3,0-2.6,0-3.8c139.3,0,278.7,0,418.1,0c0,122.3,0,244.6,0,367c-70.7,0-141.4,0-212.1,0
			c2-0.8,3.5-2,3.8-4.3c0-0.1,0-0.3,0-0.4c0.2-0.7,0.3-1.4,0.5-2.2c0.2-0.6,0.5-1.2,0.7-1.7c0.5-0.9,1-1.7,1.5-2.6
			c0.4-0.5,0.8-1,1.2-1.4c1.3-1.2,2.8-1.7,4.5-2c1.4-0.6,2.9-1.3,4.3-1.9c0.5-0.4,1-0.8,1.4-1.2c0.7-0.8,1.5-1.6,2.2-2.3
			c0.4-0.6,0.8-1.3,1.2-1.9c0.3-0.2,0.7-0.6,1-0.5c1.4,0.2,2.7-0.1,3.8-1c0.5-0.5,1-1.1,1.5-1.6c0.2-0.6,0.5-1.3,0.7-1.9
			c0.1-0.2,0.1-0.4,0.2-0.7c0.2-0.9,0.5-1.8,0.7-2.7c0.1-0.7,0.3-1.4,0.4-2.2c0-0.2,0-0.5,0.1-0.7c0.1-1,0.1-1.9,0.2-2.9
			c0-0.9,0-1.8,0-2.6c0-0.5,0-0.9,0-1.4c0.5-0.9,1-1.7,1.5-2.6c0.1-0.4,0.1-0.8,0.2-1.2c0.1-0.7,0.2-1.4,0.3-2.1
			c0.1-1.1,0.1-2.3,0.2-3.4c0-0.7,0-1.4,0-2.2c-0.1-1-0.1-1.9-0.2-2.9c-0.1-0.7-0.2-1.5-0.3-2.2c-0.1-0.7-0.3-1.4-0.4-2.1
			c-0.2-0.8-0.3-1.6-0.5-2.4c-0.2-0.9-0.5-1.8-0.7-2.6c-0.2-0.6-0.4-1.3-0.5-1.9c-0.2-0.6-0.5-1.3-0.7-1.9c-0.3-0.9-0.7-1.8-1-2.6
			c0.1-0.5,0.1-1.1,0.3-1.6c0.1-0.4,0.5-0.7,0.7-1.1c0.4-0.5,0.8-1,1.2-1.4c0.5-0.6,0.9-1.2,1.4-1.7c0.6-0.7,1.1-1.4,1.7-2.2
			c1-1.9,2.5-2.2,4.3-1.2c0.1,0,0.2,0,0.2,0c3.1,0.8,6.1,1.8,9.2,2.5c1,0.2,2.3,0.1,3.2-0.4c1.1-0.5,2-1.5,3-2.3
			c0.4-0.4,0.8-0.8,1.2-1.2c0.6-0.5,1.3-1.1,1.9-1.6c0.8-0.7,1.6-1.4,2.4-2.1c0.6-0.6,1.3-1.2,1.9-1.7c0.5-0.4,1-0.8,1.4-1.2
			c0.7-0.6,1.3-1.2,2-1.9c0.6-0.6,1.3-1.1,1.9-1.7c0.5-0.5,1.1-1,1.6-1.4c1-0.9,2.1-1.8,3.1-2.7c0.7-0.6,1.3-1.2,2-1.9
			c0.7-0.6,1.4-1.3,2.2-1.9c0.7-0.6,1.4-1.3,2.2-1.9c0.9-0.7,1.7-1.5,2.6-2.2c0.7-0.6,1.4-1.3,2.2-1.9c0.9-0.8,1.8-1.6,2.6-2.4
			c0.7-0.6,1.4-1.3,2.2-1.9c0.3-0.3,0.7-0.6,1-0.9c4.3-3.8,8.7-7.6,13-11.5c2.6-2.3,5.3-4.6,7.9-7c1.4-1.3,3.1-2.4,4-4.4
			c3.9-9.3,7.9-18.5,11.9-27.7c0.7-1.6,1.7-3.2,0.8-5c-0.7-1.4,0.1-2,0.9-2.8c1.1-1,2.2-2,2.9-3.3c1.2-2.2,2-4.5,3-6.8
			c4.7-11,9.4-21.9,14.2-32.9c1-2.3,1.3-4.5-0.7-6.7c1.3-1.2,2.5-2.3,3.7-3.5c1.1-1.2,2.4-2.4,3.1-3.9c2.3-4.9,4.3-9.9,6.4-14.8
			c3.1-7.3,6.3-14.6,9.5-21.9c0.5-1.1,1-2.3,1.3-3.5c0.3-1.9-0.3-3.6-1.9-5c0.4-0.4,0.6-0.8,1-1.1c1.7-1.8,3.5-3.5,5.2-5.3
			c0.7-0.7,1.4-1.4,1.8-2.2c1.3-2.6,2.5-5.4,3.7-8.1c3.2-7.1,6.4-14.3,9.6-21.4c2.1-4.7,4.3-9.4,6.4-14.1c3.3-7.3,6.6-14.6,9.9-21.8
			c2.1-4.7,4.3-9.4,6.5-14.2c1.1-2.5,0.5-5.1-1.6-6.5c-2.5-1.7-5.2-1.2-7.4,1.4c-3.8,4.3-7.6,8.6-11.4,12.9c-2.5,2.8-5,5.5-7.5,8.2
			c-4.1,4.6-8.2,9.1-12.3,13.7c-2.3,2.6-4.6,5.1-6.9,7.6c-4,4.5-8.1,9-12.1,13.5c-2.3,2.6-4.6,5.1-6.9,7.6
			c-3.9,4.4-7.9,8.8-11.8,13.2c-2.4,2.6-4.8,5.3-7.1,7.9c-4,4.5-8,9-12,13.5c-2.4,2.6-4.8,5.3-7.1,7.9c-4,4.4-7.9,8.9-11.9,13.3
			c-2.3,2.6-4.7,5.2-7.1,7.8c-3.8,4.3-7.6,8.6-11.5,12.9c-2.5,2.8-5,5.5-7.5,8.2c-4.1,4.6-8.2,9.1-12.3,13.7c-2.2,2.5-4.5,5-6.7,7.5
			c-4,4.5-8,8.9-12,13.4c-1.8,2-3.6,4.1-5.4,6.1c-1.4,1.5-2.8,2.9-4.4,4.2c-1.6,1.2-2.8,1-3.8-0.8c-1.2-2.2-2.1-4.6-3.2-6.9
			c-0.3-0.7-0.1-1.1,0.5-1.6c2.9-2.5,3-5.3,0.3-8.1c-2.5-2.6-1.8-7.1,1.5-8.8c3.5-1.9,7.3-2.8,11.2-3.4c2.9-0.4,5.4-0.9,7.2-3.7
			c2-3.2,0.7-7.4-3-8.1c-2.3-0.4-4.7-0.2-7-0.5c-4.6-0.5-8.8-2.2-12.4-5.2c-2.9-2.5-5.7-5.3-8.6-7.8c-3.7-3.2-7.9-5.8-12.7-7
			c-3.6-1-7.1-0.8-10.5,1.3c-0.9,0.6-2.2,0.9-3.4,0.9c-2.9,0.2-5.6-0.6-8.2-1.9c-1.8-0.9-3.6-0.9-5.2,0.1c-3.3,2.1-6.2,4.6-8.4,7.9
			c-0.6,1-1.1,2.1-1.3,3.3c-0.5,3.3,2.9,6.6,7.1,5.2c3.8-1.3,7.4-0.5,10.6,1.9c2.9,2.1,4.6,5.1,6.1,8.3c2.9,6.1,3.6,12.3,1.1,18.6
			c-1.2,3.1-2.7,5.9-5.6,7.8c-2.3,1.6-2.4,5.2-0.4,7.2c0.8,0.8,0.7,1.5,0.2,2.3c-0.2,0.4-0.5,0.7-0.9,1.2c-0.6-0.5-1.3-1-1.8-1.5
			c-1-1.1-2-2.2-3-3.3c-2.5-2.7-5-5.5-7.5-8.2c-3.9-4.4-7.8-8.8-11.7-13.1c-2.5-2.8-5-5.5-7.5-8.2c-4.1-4.6-8.2-9.1-12.3-13.7
			c-2.3-2.6-4.7-5.1-7-7.7c-3.9-4.4-7.9-8.8-11.8-13.2c-2.5-2.7-4.9-5.4-7.4-8.2c-3.9-4.4-7.9-8.8-11.8-13.2
			c-2.5-2.7-4.9-5.4-7.4-8.2c-4-4.4-8-8.9-12-13.4c-2.4-2.7-4.8-5.3-7.2-8c-4-4.5-8-8.9-12-13.4c-2.4-2.7-4.8-5.3-7.2-8
			c-4-4.5-8-8.9-12-13.4c-2.4-2.7-4.8-5.3-7.2-8c-4.1-4.5-8.1-9-12.1-13.5c-2.3-2.6-4.7-5.2-7.1-7.8c-3.7-4.1-7.3-8.2-11.1-12.2
			c-2-2.1-5-2.1-7,0C98.1,215.5,97.7,216.3,97.2,217z"/>
		<path class="st0" d="M300.5,580.1c-67.8,0-135.5,0-203.3,0c0-120.2,0-240.3,0-360.5c0.9,2,1.9,4,2.8,6.1
			c3.2,7.1,6.4,14.3,9.6,21.4c2.1,4.7,4.3,9.4,6.4,14.1c3.3,7.3,6.6,14.7,10,22c2.2,4.9,4.4,9.7,6.6,14.6c0.9,2,1.9,3.8,3.6,5.3
			c2,1.8,3.8,3.9,5.6,5.9c-1.9,1.7-2.6,3.7-1.6,6.1c2.4,5.7,4.9,11.4,7.3,17c2.6,6.1,5.3,12.2,7.9,18.4c1.3,3.1,2.7,6,5.4,8.2
			c1.1,0.8,2,1.8,3,2.7c-1.6,1.9-2,3.8-1.1,5.8c2.5,5.8,5,11.6,7.5,17.4c2.6,6,5.2,12.1,7.8,18.1c1.4,3.3,2.6,6.7,5.7,9
			c0.3,0.3,0.6,0.6,1,0.9c-1.1,2-0.7,3.9,0.1,5.8c4.7,10.7,9.2,21.4,13.8,32.1c0.9,2.1,2,4.1,3.8,5.5c1.6,1.2,3,2.6,4.6,3.9
			c3.4,2.9,6.7,5.9,10.1,8.8c0.6,0.6,1.3,1.1,1.9,1.7c0.7,0.6,1.4,1.3,2.2,1.9c0.9,0.7,1.7,1.5,2.6,2.2c1,0.9,1.9,1.8,2.9,2.6
			c0.8,0.7,1.6,1.4,2.4,2.1c0.6,0.6,1.3,1.1,1.9,1.7c0.7,0.6,1.4,1.1,2.1,1.7c0.6,0.6,1.3,1.1,1.9,1.7c1.1,0.9,2.1,1.9,3.2,2.8
			c0.6,0.6,1.3,1.1,1.9,1.7c0.6,0.6,1.3,1.1,1.9,1.7c1,0.8,1.9,1.6,2.9,2.4c0.7,0.6,1.4,1.3,2.2,1.9c0.9,0.8,1.8,1.6,2.7,2.4
			c0.6,0.6,1.3,1.1,1.9,1.7c0.5,0.4,1,0.8,1.4,1.2c2,2.3,4.3,3.1,7.3,2.1c2.4-0.8,4.9-1.4,7.4-2.1c0.7-0.2,1.4-0.4,2-0.6
			c1.1-0.4,2.2-0.6,3,0.6c0.5,0.5,0.9,1,1.4,1.5c0.4,0.4,0.8,0.8,1.2,1.2c0.7,0.8,1.5,1.6,2.2,2.4c0.6,0.6,1.3,1.3,1.9,1.9
			c0.3,0.3,0.5,0.7,0.9,1c0.5,0.4,0.6,0.9,0.3,1.4c-0.4,0.9-0.8,1.8-1.2,2.6c-0.2,0.9-0.5,1.8-0.7,2.6c-0.2,1-0.3,2.1-0.5,3.1
			c0,0.4,0,0.8,0,1.2c0,0.6,0,1.3,0,1.9c0.1,0.8,0.1,1.6,0.2,2.4c0.1,0.6,0.2,1.3,0.3,1.9c0.2,0.8,0.3,1.6,0.5,2.4
			c0.2,0.6,0.3,1.3,0.5,1.9c0.2,0.6,0.3,1.1,0.5,1.7c0.3,1,0.6,2,0.9,2.9c0.2,0.7,0.5,1.4,0.7,2.2c0.2,0.5,0.3,0.9,0.5,1.4
			c0.3,0.6,0.6,1.1,0.9,1.7c0.6,1,2.2,1.2,2.2,2.6c0.1,0.6,0.2,1.1,0.3,1.7c0.1,0.6,0.3,1.1,0.4,1.7c0.2,0.6,0.3,1.1,0.5,1.7
			c0.2,0.7,0.5,1.4,0.7,2.2c0.2,0.4,0.3,0.8,0.5,1.2c0.3,0.7,0.6,1.4,1,2.2c0.2,0.6,0.5,1.3,0.7,1.9c0.1,1.3,0.2,2.5,0.3,3.8
			c-0.1,0.4-0.2,0.8-0.3,1.2c-0.2,0.8-0.3,1.6-0.5,2.4c0.2,0.6,0.3,1.3,0.5,1.9c0.3,0.5,0.6,0.9,1,1.4c1,1.1,2.4,1.4,3.8,1.5
			c0.3,0,0.7,0.3,1,0.5c0,0.5,0,1,0,1.4c0,0.6,0.1,1.1,0.1,1.7c0.1,0.7,0.2,1.4,0.3,2.1c0.2,0.6,0.3,1.3,0.5,1.9
			c0.1,0.4,0.3,0.8,0.4,1.2C297.1,577.9,298.6,579.2,300.5,580.1z"/>
		<path class="st1" d="M217,468.7c-3.4-2.9-6.7-5.9-10.1-8.8c-1.5-1.3-3-2.6-4.6-3.9c-1.8-1.5-2.9-3.4-3.8-5.5
			c-4.6-10.7-9.1-21.4-13.8-32.1c-0.9-2-1.2-3.9-0.1-5.8c-0.3-0.3-0.6-0.7-1-0.9c-3.1-2.2-4.3-5.7-5.7-9c-2.6-6-5.2-12.1-7.8-18.1
			c-2.5-5.8-5-11.6-7.5-17.4c-0.8-2-0.4-3.9,1.1-5.8c-1-0.9-1.9-1.9-3-2.7c-2.7-2.1-4.1-5.1-5.4-8.2c-2.6-6.1-5.2-12.2-7.9-18.4
			c-2.4-5.7-4.9-11.4-7.3-17c-1-2.4-0.2-4.3,1.6-6.1c-1.9-2-3.7-4-5.6-5.9c-1.6-1.5-2.7-3.3-3.6-5.3c-2.2-4.9-4.4-9.8-6.6-14.6
			c-3.3-7.3-6.6-14.7-10-22c-2.1-4.7-4.3-9.4-6.4-14.1c-3.2-7.1-6.4-14.3-9.6-21.4c-0.9-2-1.9-4.1-2.8-6.1c0-0.9,0-1.8,0-2.6
			c0.5-0.7,0.9-1.5,1.5-2.1c2-2.1,5.1-2.1,7,0c3.7,4,7.4,8.2,11.1,12.2c2.4,2.6,4.7,5.2,7.1,7.8c4,4.5,8.1,9,12.1,13.5
			c2.4,2.7,4.8,5.3,7.2,8c4,4.5,8,8.9,12,13.4c2.4,2.7,4.8,5.3,7.2,8c4,4.5,8,8.9,12,13.4c2.4,2.7,4.8,5.3,7.2,8
			c4,4.5,8,8.9,12,13.4c2.5,2.7,4.9,5.4,7.4,8.2c3.9,4.4,7.9,8.8,11.8,13.2c2.5,2.7,4.9,5.4,7.4,8.2c3.9,4.4,7.9,8.8,11.8,13.2
			c2.3,2.6,4.7,5.1,7,7.7c4.1,4.6,8.2,9.2,12.3,13.7c2.5,2.8,5,5.5,7.5,8.2c3.9,4.4,7.8,8.8,11.7,13.1c2.5,2.8,5,5.5,7.5,8.2
			c1,1.1,2,2.2,3,3.3c0.5,0.5,1.1,1,1.8,1.5c0.4-0.5,0.6-0.9,0.9-1.2c0.6-0.8,0.7-1.4-0.2-2.3c-2-2-1.9-5.6,0.4-7.2
			c2.9-2,4.4-4.8,5.6-7.8c2.5-6.4,1.8-12.6-1.1-18.6c-1.5-3.2-3.2-6.1-6.1-8.3c-3.2-2.4-6.8-3.2-10.6-1.9c-4.1,1.5-7.6-1.8-7.1-5.2
			c0.2-1.1,0.7-2.3,1.3-3.3c2.2-3.3,5.1-5.8,8.4-7.9c1.7-1.1,3.5-1,5.2-0.1c2.6,1.3,5.3,2.1,8.2,1.9c1.2-0.1,2.5-0.3,3.4-0.9
			c3.3-2.2,6.8-2.3,10.5-1.3c4.8,1.3,8.9,3.8,12.7,7c2.9,2.5,5.7,5.3,8.6,7.8c3.5,3,7.7,4.8,12.4,5.2c2.3,0.2,4.7,0.1,7,0.5
			c3.7,0.7,5,4.9,3,8.1c-1.8,2.7-4.3,3.3-7.2,3.7c-3.9,0.6-7.7,1.5-11.2,3.4c-3.2,1.7-4,6.2-1.5,8.8c2.6,2.7,2.5,5.6-0.3,8.1
			c-0.6,0.5-0.7,0.9-0.5,1.6c1,2.3,1.9,4.7,3.2,6.9c1,1.8,2.2,2,3.8,0.8c1.6-1.2,3-2.7,4.4-4.2c1.9-2,3.6-4,5.4-6.1
			c4-4.5,8-8.9,12-13.4c2.2-2.5,4.5-5,6.7-7.5c4.1-4.6,8.2-9.2,12.3-13.7c2.5-2.8,5-5.5,7.5-8.2c3.8-4.3,7.6-8.6,11.5-12.9
			c2.3-2.6,4.7-5.2,7.1-7.8c4-4.4,7.9-8.9,11.9-13.3c2.4-2.6,4.8-5.3,7.1-7.9c4-4.5,8-9,12-13.5c2.4-2.6,4.8-5.3,7.1-7.9
			c3.9-4.4,7.9-8.8,11.8-13.2c2.3-2.6,4.6-5.1,6.9-7.6c4-4.5,8.1-9,12.1-13.5c2.3-2.6,4.6-5.1,6.9-7.6c4.1-4.6,8.2-9.2,12.3-13.7
			c2.5-2.8,5-5.5,7.5-8.2c3.8-4.3,7.7-8.5,11.4-12.9c2.2-2.5,4.9-3.1,7.4-1.4c2,1.4,2.7,4,1.6,6.5c-2.1,4.7-4.3,9.4-6.5,14.2
			c-3.3,7.3-6.6,14.6-9.9,21.8c-2.1,4.7-4.3,9.4-6.4,14.1c-3.2,7.1-6.4,14.3-9.6,21.4c-1.2,2.7-2.4,5.4-3.7,8.1
			c-0.4,0.8-1.1,1.6-1.8,2.2c-1.7,1.8-3.5,3.5-5.2,5.3c-0.3,0.3-0.6,0.7-1,1.1c1.6,1.3,2.2,3,1.9,5c-0.2,1.2-0.8,2.3-1.3,3.5
			c-3.1,7.3-6.3,14.6-9.5,21.9c-2.1,4.9-4.2,9.9-6.4,14.8c-0.7,1.5-2,2.7-3.1,3.9c-1.1,1.2-2.4,2.3-3.7,3.5c2,2.2,1.7,4.4,0.7,6.7
			c-4.8,10.9-9.5,21.9-14.2,32.9c-1,2.3-1.8,4.6-3,6.8c-0.7,1.2-1.8,2.3-2.9,3.3c-0.8,0.8-1.6,1.3-0.9,2.8c0.9,1.8-0.2,3.4-0.8,5
			c-4,9.2-8,18.5-11.9,27.7c-0.8,2-2.6,3-4,4.4c-2.6,2.4-5.2,4.7-7.9,7c-4.3,3.8-8.7,7.6-13,11.5c-0.4-0.1-0.7-0.2-1.1-0.2
			c-1.6,0-3.2,0-4.8,0c-0.4,0-0.7-0.2-1.1-0.3c0.9-0.8,1.7-1.6,2.6-2.3c7.9-7,15.8-14.1,23.7-21.2c0.4-0.4,0.8-0.9,1-1.4
			c2.9-6.6,5.7-13.3,8.6-19.9c1.2-2.7,2.3-5.4,3.5-8.1c-0.1-0.1-0.1-0.1-0.2-0.2c-18.8,15.5-37.5,31-56.3,46.5
			c-0.1-0.1-0.2-0.3-0.4-0.4c0.4-0.3,0.8-0.6,1.2-0.9c10.2-9.4,20.3-18.7,30.5-28.1c9.6-8.9,19.3-17.7,28.9-26.6
			c0.4-0.4,0.8-0.9,1-1.5c5.1-11.8,10.2-23.6,15.3-35.4c0.5-1.2,1-2.4,1.6-3.7c-0.1,0-0.1-0.1-0.2-0.1
			c-26.8,25.2-53.5,50.4-80.3,75.6c-0.1-0.1-0.2-0.1-0.3-0.2c0.2-0.3,0.4-0.7,0.6-1c0.9-1,1.9-2,2.8-2.9c7.7-7.8,15.3-15.7,23-23.5
			c7.6-7.7,15.1-15.4,22.7-23.1c8.2-8.3,16.4-16.7,24.5-25c4.1-4.2,8.3-8.5,12.4-12.7c0.4-0.4,0.7-0.8,0.9-1.3
			c4.5-10.4,8.9-20.7,13.4-31.1c1-2.3,2-4.6,3.1-7.2c-34.5,33.4-68.7,66.6-102.9,99.8c-0.1-0.1-0.3-0.1-0.4-0.2
			c0.3-0.7,0.3-1.5,0.8-2c6.5-6.9,13.1-13.7,19.7-20.5c6.7-7,13.4-13.9,20.2-20.9c6.8-7.1,13.7-14.1,20.5-21.2
			c6.8-7,13.5-14,20.3-21c8.7-9,17.5-18,26.2-27.1c1-1,2-2.2,2.7-3.5c2.5-5.1,4.8-10.4,7.1-15.6c9.1-20,18.1-40,27.2-60
			c0.1-0.3,0.2-0.7,0.3-1c-0.2-0.1-0.4-0.3-0.5-0.4c-0.2,0.4-0.4,0.8-0.6,1.1c-1.7,1.9-3.4,3.8-5.1,5.7
			c-10.5,11.7-21,23.4-31.6,35.1c-12,13.4-24.1,26.8-36.1,40.2c-10.5,11.7-21,23.4-31.6,35.1c-12.7,14.1-25.4,28.2-38.1,42.4
			c-9.2,10.2-18.3,20.5-27.6,30.6c-1.4,1.5-3.2,2.6-5,3.7c-1.2,0.7-2.7,1-4.3,0.7c-2.3-0.5-3.9-1.9-5.2-3.8
			c-3.3-4.9-4.4-10.5-5.5-16.3c1.3,0.2,2.4,0.4,3.5,0.5c0-0.2,0.1-0.3,0-0.3c-0.1-0.2-0.2-0.3-0.3-0.5c-2.9-3.5-3.1-7.2-1.2-11.3
			c1.7-3.7,4.8-5.6,8.4-6.6c3.4-1,7-1.7,10.4-2.5c0.9-0.2,1.9-0.2,2.1-1.4c-1.5-0.1-2.9-0.2-4.4-0.3c-6.2-0.4-11.9-2.4-16.7-6.5
			c-3-2.5-5.7-5.3-8.6-7.8c-3.4-2.9-7-5.3-11.4-6.3c-2-0.5-4-0.4-5.8,0.9c-0.7,0.5-1.6,0.9-2.5,1.1c-4.1,1.1-8.1,0.7-11.9-1
			c-2-0.9-3.3-0.6-4.8,0.8c-1.7,1.6-3.5,3.1-4.7,5.3c0.5-0.1,0.9-0.2,1.3-0.3c4.7-1,9.2-0.4,13.3,2.3c3.9,2.5,6.4,6.2,8.4,10.3
			c3.3,6.8,4.4,13.9,2.2,21.3c-1.4,4.5-3.5,8.6-7.4,11.8c1.6,0,2.9,0,4.3,0c0,0.2,0,0.3,0,0.3c-0.8,1.7-1.5,3.5-2.3,5.1
			c-0.9,1.7-1.8,3.4-3,4.9c-1.3,1.8-3.2,2.3-5.2,1.3c-1.5-0.7-3-1.6-4.1-2.8c-5.2-5.6-10.2-11.3-15.3-16.9
			c-11.7-13-23.4-26.1-35.1-39.1c-8.1-9.1-16.3-18.1-24.5-27.2c-11-12.3-22-24.6-33.1-36.8c-8.9-9.9-17.8-19.7-26.6-29.6
			c-13-14.5-26-29-39-43.4c-0.2-0.2-0.4-0.3-0.6-0.4c0.8,2.3,1.8,4.4,2.8,6.5c10.7,23.7,21.5,47.4,32.2,71c0.2,0.5,0.6,1,1,1.5
			c6.2,6.4,12.4,12.8,18.6,19.3c9.1,9.5,18.3,18.9,27.4,28.4c6.7,6.9,13.4,13.9,20.1,20.8c9.3,9.6,18.6,19.2,27.8,28.8
			c5.8,6,11.6,12,17.4,18c0.6,0.6,0.9,1.2,0.5,2.1c-2.5-2.4-4.9-4.8-7.4-7.1c-5.2-5-10.3-10-15.5-15c-8.2-8-16.5-16-24.7-24
			c-5.1-5-10.2-9.9-15.3-14.9c-8.2-8-16.4-15.9-24.6-23.9c-5.6-5.4-11.1-10.8-16.7-16.2c-0.3-0.3-0.7-0.5-1.1-0.7
			c5.2,12.7,10.6,25.1,16,37.5c0.2,0.4,0.5,0.7,0.8,1.1c7.1,7.3,14.3,14.6,21.4,21.9c7.6,7.7,15.1,15.4,22.7,23.1
			c7.7,7.8,15.3,15.7,23,23.5c6.9,7,13.7,14,20.6,21c0.2,0.2,0.4,0.5,0.6,0.7c-0.1,0.1-0.2,0.2-0.3,0.2
			c-27.4-25.8-54.8-51.6-82.3-77.4c-0.2,0.3-0.1,0.5-0.1,0.6c5.6,12.9,11.1,25.8,16.7,38.7c0.2,0.5,0.6,0.9,0.9,1.2
			c2.5,2.3,4.9,4.6,7.4,6.8c10.6,9.7,21.2,19.5,31.8,29.2c5.8,5.3,11.5,10.6,17.3,15.9c1.1,1,2.2,2.1,3.3,3.1
			c-0.1,0.1-0.2,0.2-0.3,0.3c-18.5-15.3-37-30.6-55.5-45.9c-0.1,0.3-0.1,0.5,0,0.7c4.8,11.2,9.7,22.5,14.5,33.7
			c0.2,0.4,0.4,0.8,0.8,1c3.4,3,6.8,5.9,10.2,8.9c3.1,2.7,6.2,5.4,9.3,8.2c-2,0-4,0-6.1,0.1C217.8,468.5,217.4,468.6,217,468.7z"/>
		<path class="st2" d="M300.5,580.1c-1.9-0.9-3.4-2.2-3.9-4.3c3.4,0,6.9,0,10.3,0c-0.3,2.3-1.8,3.5-3.8,4.3
			C302.2,580.1,301.4,580.1,300.5,580.1z"/>
		<path class="st3" d="M359.3,497.3c-0.6,0.5-1.3,1.1-1.9,1.6c-0.5-0.1-0.9-0.2-1.4-0.2c-8,0-15.9,0-23.9,0c0.4-0.6,0.8-1.1,1.2-1.7
			c4.3,0,8.5,0,12.8,0c0.4,0,0.8-0.1,1.1-0.2c0.7,0.2,1.4,0.2,2,0.5c1.2,0.6,2.2,0.4,3-0.6c1,0.1,2,0.2,3,0.3
			C356.6,497.1,358,497.2,359.3,497.3z"/>
		<path class="st4" d="M332.1,498.7c8,0,15.9,0,23.9,0c0.5,0,0.9,0.1,1.4,0.2c-0.4,0.4-0.8,0.8-1.2,1.2c-0.1-0.1-0.2-0.2-0.3-0.2
			c-4.9,0-9.8,0-14.7,0c-0.1,0-0.2,0.3-0.3,0.4c-0.1,0-0.2,0-0.2,0c-1.8-1-3.3-0.7-4.3,1.2c-1.4-0.1-2.9-0.1-4.3-0.2
			c-0.6,0-1.1-0.2-1.7-0.3C330.9,500.3,331.5,499.5,332.1,498.7z"/>
		<path class="st5" d="M340.8,500.3c0.1-0.1,0.2-0.4,0.3-0.4c4.9,0,9.8,0,14.7,0c0.1,0,0.2,0.1,0.3,0.2c-1,0.8-1.9,1.8-3,2.3
			c-0.9,0.4-2.2,0.6-3.2,0.4C346.9,502.1,343.8,501.2,340.8,500.3z"/>
		<path class="st6" d="M323.3,559.9c-0.7,0.8-1.5,1.6-2.2,2.3c-0.4-0.1-0.8-0.2-1.3-0.2c-3.4,0-6.8,0-10.3,0c0.5-0.3,1-0.7,1.5-0.8
			c1.7-0.6,3.4-1.1,5.2-1.6c1.9,0,3.7,0,5.6,0C322.4,559.7,322.8,559.9,323.3,559.9z"/>
		<path class="st7" d="M319.7,563.5c-1.4,0.6-2.9,1.3-4.3,1.9c-0.4-0.1-0.8-0.2-1.2-0.2c-2.6,0-5.3,0-7.9,0c0.6-0.6,1.2-1.3,1.8-1.9
			c3.5,0,7.1,0,10.6,0C318.9,563.3,319.3,563.4,319.7,563.5z"/>
		<path class="st8" d="M373.7,484.5c-1,0.9-2.1,1.8-3.1,2.7c-0.4-0.1-0.7-0.2-1.1-0.2c-1.6,0-3.2,0-4.8,0c-0.4,0-0.7-0.2-1.1-0.3
			c1-0.8,1.9-1.7,2.9-2.5c1.4,0.1,2.8,0.1,4.1,0.2C371.6,484.4,372.6,484.5,373.7,484.5z"/>
		<path class="st9" d="M387.4,472.3c-0.9,0.8-1.8,1.6-2.6,2.4c-0.5-0.1-0.9-0.2-1.4-0.2c-1.9-0.1-3.9-0.1-5.8-0.2
			c0.8-0.8,1.7-1.5,2.5-2.3c1.8,0,3.6,0,5.3,0C386.1,472.1,386.7,472.2,387.4,472.3z"/>
		<path class="st10" d="M382.5,476.6c-0.9,0.7-1.7,1.5-2.6,2.2c-2,0-3.9,0-5.9,0c-0.5,0-0.9-0.2-1.4-0.2c0.8-0.7,1.7-1.5,2.5-2.2
			c1.6,0,3.2,0,4.9,0.1C380.9,476.4,381.7,476.5,382.5,476.6z"/>
		<path class="st11" d="M331.5,553c-0.2,0.6-0.5,1.3-0.7,1.9c-0.4-0.1-0.8-0.3-1.2-0.3c-3,0-5.9,0-8.9,0c0.2-0.5,0.4-1,0.6-1.4
			c0.4-0.1,0.8-0.2,1.1-0.2C325.4,553,328.4,553,331.5,553z"/>
		<path class="st12" d="M334.6,537.2c-0.5,0.9-1,1.7-1.5,2.6c-1.6-0.1-3.2-0.1-4.9-0.1c-0.1,0-0.1,0.3-0.2,0.4
			c-0.2-1-0.3-2.1-0.5-3.1c1.9,0,3.8,0,5.7,0C333.8,536.9,334.2,537.1,334.6,537.2z"/>
		<path class="st13" d="M320.6,554.6c3,0,5.9,0,8.9,0c0.4,0,0.8,0.2,1.2,0.3c-0.5,0.5-1,1.1-1.5,1.6c-0.4-0.1-0.8-0.2-1.3-0.2
			c-2.8,0-5.6,0-8.4,0C320,555.7,320.3,555.2,320.6,554.6z"/>
		<path class="st14" d="M359.3,497.3c-1.3-0.1-2.6-0.2-4-0.2c-1-0.1-2-0.2-3-0.3c0.8-0.7,1.6-1.4,2.4-2.2c0.4,0.1,0.7,0.2,1.1,0.3
			c1.5,0,3,0,4.5,0c0.5,0,0.9,0.2,1.3,0.2C360.9,495.9,360.1,496.6,359.3,497.3z"/>
		<path class="st15" d="M332,506.9c-0.3,0.4-0.6,0.7-0.7,1.1c-0.2,0.5-0.2,1-0.3,1.6c-1.9,0-3.7,0-5.6,0c-0.7-0.9-1.3-1.8,0.1-2.7
			C327.6,506.9,329.8,506.9,332,506.9z"/>
		<path class="st16" d="M306.2,565.2c2.6,0,5.3,0,7.9,0c0.4,0,0.8,0.1,1.2,0.2c-1.6,0.3-3.2,0.8-4.5,2c-2.1,0-4.2,0-6.3,0
			C305.1,566.6,305.6,565.9,306.2,565.2z"/>
		<path class="st17" d="M331.5,553c-3.1,0-6.1,0-9.2,0c-0.4,0-0.8,0.2-1.1,0.2c0.2-0.7,0.5-1.4,0.7-2.2c1.4,0,2.9,0,4.3,0
			c0.2,0.2,0.3,0.5,0.5,0.7c1.4,0,2.7,0,4.1,0c0.3,0,0.7,0.3,1,0.5C331.6,552.5,331.6,552.7,331.5,553z"/>
		<path class="st18" d="M382.5,476.6c-0.8-0.1-1.6-0.2-2.4-0.2c-1.6,0-3.2,0-4.9-0.1c0.8-0.7,1.5-1.4,2.3-2.1
			c1.9,0.1,3.9,0.1,5.8,0.2c0.5,0,0.9,0.1,1.4,0.2C384,475.3,383.3,476,382.5,476.6z"/>
		<path class="st19" d="M387.4,472.3c-0.6-0.1-1.3-0.2-1.9-0.2c-1.8,0-3.6,0-5.3,0c0.7-0.6,1.4-1.3,2.2-1.9c1.8,0,3.6,0,5.3,0
			c0.7,0,1.3,0.1,1.9,0.2C388.8,471,388.1,471.7,387.4,472.3z"/>
		<path class="st20" d="M372.7,478.6c0.5,0.1,0.9,0.2,1.4,0.2c2,0,3.9,0,5.9,0c-0.7,0.6-1.4,1.3-2.2,1.9c-1.6,0-3.1,0-4.7,0
			c-0.9,0-1.7-0.1-2.6-0.2C371.3,479.9,372,479.2,372.7,478.6z"/>
		<path class="st21" d="M370.6,480.5c0.9,0.1,1.7,0.2,2.6,0.2c1.6,0,3.1,0,4.7,0c-0.7,0.6-1.4,1.3-2.2,1.9c-2,0-4,0-6,0
			c-0.4,0-0.8-0.2-1.2-0.2C369.1,481.8,369.8,481.1,370.6,480.5z"/>
		<path class="st22" d="M325.4,509.5c1.9,0,3.7,0,5.6,0c0.3,0.9,0.7,1.8,1,2.6c-1.8,0-3.6,0-5.3,0
			C326.2,511.3,325.8,510.4,325.4,509.5z"/>
		<path class="st23" d="M319.7,563.5c-0.4-0.1-0.8-0.2-1.1-0.2c-3.5,0-7.1,0-10.6,0c0.6-0.4,1.1-0.8,1.7-1.2c3.4,0,6.8,0,10.3,0
			c0.4,0,0.8,0.1,1.3,0.2C320.6,562.7,320.1,563.1,319.7,563.5z"/>
		<path class="st24" d="M330.2,501.1c0.6,0.1,1.1,0.2,1.7,0.3c1.4,0.1,2.9,0.2,4.3,0.2c-0.6,0.7-1.1,1.4-1.7,2.2
			c-0.4-0.1-0.8-0.2-1.1-0.2c-1.7,0-3.4,0-5.1,0C328.9,502.7,329.6,501.9,330.2,501.1z"/>
		<path class="st25" d="M319.6,556.3c2.8,0,5.6,0,8.4,0c0.4,0,0.8,0.1,1.3,0.2c-1.1,0.9-2.4,1.1-3.8,1c-0.3,0-0.7,0.3-1,0.5
			c-2,0-4,0-6.1,0C318.8,557.4,319.2,556.9,319.6,556.3z"/>
		<path class="st26" d="M333.1,516c0.2,0.9,0.5,1.8,0.7,2.6c-0.7,0-1.4,0-2,0c-1,0.1-2,0.2-3,0.3c-0.2-0.9-0.5-1.7-0.7-2.6
			c0.4-0.1,0.7-0.3,1.1-0.3C330.5,516,331.8,516,333.1,516z"/>
		<path class="st27" d="M334.6,537.2c-0.4-0.1-0.8-0.3-1.2-0.3c-1.9,0-3.8,0-5.7,0c-0.1-0.5-0.2-0.9-0.3-1.4
			c0.4-1.1,1.3-0.3,1.9-0.5c0.2,0.2,0.4,0.3,0.5,0.5c0.3-0.2,0.7-0.4,1-0.5c1-0.1,2.1,0,3.1,0c0.8,0,1,0.3,0.9,1
			C334.7,536.3,334.7,536.8,334.6,537.2z"/>
		<path class="st28" d="M335.2,530.4c-0.1,1.1-0.1,2.3-0.2,3.4c0-0.6-0.3-0.8-0.9-0.8c-1,0-2-0.1-3,0c-0.4,0-0.8,0.4-1.2,0.7
			c0.1-1.1,0.1-2.2,0.2-3.4C331.9,530.4,333.6,530.4,335.2,530.4z"/>
		<path class="st29" d="M335,525.4c0.1,1,0.1,1.9,0.2,2.9c-1.6-0.1-3.1-0.1-4.7-0.2c-0.1,0-0.2,0.3-0.3,0.4c-0.1-1-0.2-2.1-0.3-3.1
			C331.6,525.4,333.3,525.4,335,525.4z"/>
		<path class="st30" d="M335,525.4c-1.7,0-3.4,0-5,0c-0.1-0.6-0.2-1.3-0.3-1.9c0.3-0.2,0.7-0.7,1-0.7c1-0.1,2.1-0.1,3.1,0
			c0.3,0,0.7,0.3,1,0.4C334.8,523.9,334.9,524.6,335,525.4z"/>
		<path class="st31" d="M333.1,541.2c0,0.9,0,1.8,0,2.6c-1.7,0-3.3,0-5,0c0-0.9,0-1.8,0-2.6C329.8,541.2,331.4,541.2,333.1,541.2z"
			/>
		<path class="st32" d="M367,490.3c-0.7,0.6-1.3,1.2-2,1.9c-0.4-0.1-0.8-0.2-1.2-0.2c-2,0-4,0-6,0c0.7-0.6,1.3-1.2,2-1.8
			c0.4,0.1,0.8,0.2,1.1,0.2C362.9,490.3,365,490.3,367,490.3z"/>
		<path class="st33" d="M368.4,482.4c0.4,0.1,0.8,0.2,1.2,0.2c2,0,4,0,6,0c-0.7,0.6-1.3,1.2-2,1.9c-1-0.1-2-0.2-3-0.2
			c-1.4-0.1-2.8-0.1-4.1-0.2C367.1,483.6,367.8,483,368.4,482.4z"/>
		<path class="st34" d="M367,490.3c-2,0-4.1,0-6.1,0c-0.4,0-0.8-0.1-1.1-0.2c0.6-0.6,1.3-1.1,1.9-1.7c0.4,0.1,0.8,0.2,1.1,0.2
			c2,0,4.1,0,6.1,0C368.3,489.2,367.7,489.8,367,490.3z"/>
		<path class="st35" d="M368.9,488.7c-2,0-4.1,0-6.1,0c-0.4,0-0.8-0.1-1.1-0.2c0.6-0.6,1.3-1.2,1.9-1.7c0.4,0.1,0.7,0.3,1.1,0.3
			c1.6,0,3.2,0,4.8,0c0.4,0,0.7,0.2,1.1,0.2C370,487.7,369.5,488.2,368.9,488.7z"/>
		<path class="st36" d="M361.7,495.1c-0.4-0.1-0.9-0.2-1.3-0.2c-1.5,0-3,0-4.5,0c-0.4,0-0.7-0.2-1.1-0.3c0.5-0.5,1.1-1,1.6-1.4
			c1.4,0,2.8,0,4.2,0c1,0,2,0.1,3,0.2C363,494,362.3,494.6,361.7,495.1z"/>
		<path class="st37" d="M331.7,552.3c-0.3-0.2-0.7-0.5-1-0.5c-1.4-0.1-2.7,0-4.1,0c0.3-0.8,0.5-1.6,0.8-2.4c0.5,0,1,0,1.5,0
			c1.2,0.1,2.3,0.2,3.5,0.2C332.2,550.5,331.9,551.4,331.7,552.3z"/>
		<path class="st38" d="M328.8,518.9c1-0.1,2-0.2,3-0.3c0.7,0,1.4,0,2,0c0.2,0.8,0.3,1.6,0.5,2.4c-1.7,0-3.4,0-5.1,0
			C329.1,520.3,328.9,519.6,328.8,518.9z"/>
		<path class="st39" d="M306.9,575.8c-3.4,0-6.9,0-10.3,0c-0.1-0.4-0.3-0.8-0.4-1.2c1.8,0,3.5,0,5.3,0c0.1,0.1,0.3,0.3,0.4,0.4
			c1.5-0.9,3.2-0.3,4.8-0.4c0.1,0,0.2,0.4,0.3,0.7C307,575.5,306.9,575.6,306.9,575.8z"/>
		<path class="st40" d="M309.7,568.8c-0.5,0.9-1,1.7-1.5,2.6c-0.3-0.2-0.6-0.4-0.9-0.4c-1.4,0-2.9,0-4.3,0c0.3-0.7,0.6-1.4,0.9-2.2
			C305.8,568.8,307.7,568.8,309.7,568.8z"/>
		<path class="st41" d="M330.2,528.5c0.1-0.2,0.2-0.4,0.3-0.4c1.6,0,3.1,0.1,4.7,0.2c0,0.7,0,1.4,0,2.2c-1.7,0-3.3,0-5,0
			C330.2,529.8,330.2,529.1,330.2,528.5z"/>
		<path class="st42" d="M318.4,558c2,0,4,0,6.1,0c-0.4,0.6-0.8,1.3-1.2,1.9c-0.5-0.1-0.9-0.2-1.4-0.2c-1.9,0-3.7,0-5.6,0
			C317,559.1,317.7,558.5,318.4,558z"/>
		<path class="st43" d="M332,506.9c-2.2,0-4.4,0-6.5,0c0.5-0.6,1-1.1,1.4-1.7c1.5,0,3.1,0,4.6,0c0.6,0,1.1,0.2,1.7,0.3
			C332.7,505.9,332.4,506.4,332,506.9z"/>
		<path class="st44" d="M333.1,505.5c-0.6-0.1-1.1-0.2-1.7-0.3c-1.5,0-3.1,0-4.6,0c0.5-0.6,1-1.1,1.4-1.7c1.7,0,3.4,0,5.1,0
			c0.4,0,0.8,0.1,1.1,0.2C334.1,504.3,333.6,504.9,333.1,505.5z"/>
		<path class="st45" d="M326.6,512.2c1.8,0,3.6,0,5.3,0c0.2,0.6,0.5,1.3,0.7,1.9c-1.8,0-3.5,0-5.3,0
			C327.1,513.4,326.8,512.8,326.6,512.2z"/>
		<path class="st46" d="M327.3,514.1c1.8,0,3.5,0,5.3,0c0.2,0.6,0.4,1.3,0.5,1.9c-1.3,0-2.7,0-4,0c-0.4,0-0.7,0.2-1.1,0.3
			C327.8,515.6,327.6,514.8,327.3,514.1z"/>
		<path class="st47" d="M307,575.3c-0.1-0.2-0.2-0.7-0.3-0.7c-1.6,0.1-3.3-0.5-4.8,0.4c0.2-0.8,0.4-1.6,0.6-2.4c1.3,0,2.7,0,4,0
			c0.3,0,0.7,0.3,1,0.5C307.3,573.9,307.1,574.6,307,575.3z"/>
		<path class="st48" d="M330,533.8c0.4-0.2,0.8-0.6,1.2-0.7c1-0.1,2,0,3,0c0.6,0,0.9,0.1,0.9,0.8c-0.1,0.7-0.2,1.4-0.3,2.1
			c0.1-0.7-0.1-1-0.9-1c-1,0.1-2.1,0-3.1,0c-0.3,0-0.7,0.3-1,0.5C329.9,534.9,330,534.3,330,533.8z"/>
		<path class="st49" d="M332.4,549.6c-1.2-0.1-2.3-0.2-3.5-0.2c-0.5,0-1,0-1.5,0c0.1-0.5,0.2-1,0.3-1.4c0.4-0.2,0.7-0.4,1.1-0.5
			c1.4-0.1,2.7,0,4.1,0C332.7,548.2,332.6,548.9,332.4,549.6z"/>
		<path class="st50" d="M332.8,547.4c-1.4,0-2.7,0-4.1,0c-0.4,0-0.8,0.3-1.1,0.5c0.1-0.5,0.2-1,0.2-1.4c0.2-0.3,0.4-0.9,0.7-0.9
			c1.4-0.1,2.8,0,4.2,0c0,0.5,0.1,0.9,0.1,1.2C332.9,547,332.9,547.2,332.8,547.4z"/>
		<path class="st51" d="M363.6,493.4c-1-0.1-2-0.2-3-0.2c-1.4,0-2.8,0-4.2,0c0.5-0.4,0.9-0.8,1.4-1.2c2,0,4,0,6,0
			c0.4,0,0.8,0.1,1.2,0.2C364.5,492.6,364.1,493,363.6,493.4z"/>
		<path class="st52" d="M307.5,573.2c-0.3-0.2-0.7-0.5-1-0.5c-1.3-0.1-2.7,0-4,0c0.2-0.6,0.3-1.1,0.5-1.7c1.4,0,2.9,0,4.3,0
			c0.3,0,0.6,0.3,0.9,0.4C307.9,572,307.7,572.6,307.5,573.2z"/>
		<path class="st53" d="M332.9,546.8c0-0.4,0-0.7-0.1-1.2c-1.4,0-2.8,0-4.2,0c-0.3,0-0.5,0.6-0.7,0.9c0.1-0.9,0.2-1.8,0.2-2.6
			c1.7,0,3.3,0,5,0C333,544.8,333,545.8,332.9,546.8z"/>
		<path class="st54" d="M329.3,521c1.7,0,3.4,0,5.1,0c0.1,0.7,0.3,1.4,0.4,2.1c-0.3-0.2-0.7-0.4-1-0.4c-1-0.1-2.1-0.1-3.1,0
			c-0.4,0-0.7,0.4-1,0.7C329.5,522.6,329.4,521.8,329.3,521z"/>
		<path class="st55" d="M309.7,568.8c-1.9,0-3.9,0-5.8,0c0.3-0.5,0.5-1,0.8-1.4c2.1,0,4.2,0,6.3,0
			C310.5,567.9,310.1,568.3,309.7,568.8z"/>
		<path class="st56" d="M333.1,541.2c-1.7,0-3.3,0-5,0c0-0.4,0-0.8,0-1.2c0.1-0.1,0.1-0.4,0.2-0.4c1.6,0,3.2,0.1,4.9,0.1
			C333.1,540.3,333.1,540.7,333.1,541.2z"/>
		<path class="st57" d="M389.5,470.4c-0.6-0.1-1.3-0.2-1.9-0.2c-1.8,0-3.6,0-5.3,0c0.4-0.4,0.9-0.8,1.3-1.2c0.4,0.1,0.7,0.2,1.1,0.3
			c1.6,0,3.2,0,4.8,0c0.4,0,0.7,0.2,1.1,0.2C390.2,469.8,389.8,470.1,389.5,470.4z"/>
		<path class="st3" d="M251.5,499c-0.6-0.6-1.3-1.1-1.9-1.7c0.5-0.1,0.9-0.2,1.4-0.2c1.9-0.1,3.9-0.1,5.8-0.2
			c0.7,0.7,1.4,0.6,2.2,0.3c0.4-0.1,0.8-0.2,1.1-0.3c0.2,0.1,0.5,0.1,0.7,0.1c5.2,0,10.5,0,15.7,0c0.5,0.6,1,1.1,1.5,1.7
			c-8.4,0-16.8,0-25.2,0C252.4,498.7,252,498.9,251.5,499z"/>
		<path class="st4" d="M251.5,499c0.5-0.1,0.9-0.2,1.4-0.2c8.4,0,16.8,0,25.2,0c0.3,0.3,0.7,0.7,1,1c-1.1,0.1-2.1,0.1-3.2,0.2
			c-1.1,0.1-2.2,0.1-3.3,0.2c-0.8-1.2-1.9-1-3-0.6c-0.7,0.2-1.4,0.4-2,0.6c-0.3-0.1-0.6-0.2-0.9-0.2c-4.3,0-8.6,0-12.8,0
			c-0.3,0-0.6,0.1-0.9,0.2C252.5,499.8,252,499.4,251.5,499z"/>
		<path class="st5" d="M253,500.2c0.3-0.1,0.6-0.2,0.9-0.2c4.3,0,8.6,0,12.8,0c0.3,0,0.6,0.1,0.9,0.2c-2.5,0.7-5,1.2-7.4,2.1
			C257.2,503.2,254.9,502.4,253,500.2z"/>
		<path class="st6" d="M289,562.1c0.2-0.8,0.3-1.6,0.5-2.4c1.3,0,2.7,0,4,0c0.3,0,0.7,0.3,1,0.5c-0.1,0.4-0.1,0.9-0.2,1.4
			c2,0.2,3.4-0.9,4.9-1.9c0.8,0.1,1.7,0.2,2.5,0.3c-0.4,0.8-0.8,1.6-1.2,2.4c-0.4-0.1-0.9-0.3-1.3-0.3
			C295.8,562.1,292.4,562.1,289,562.1z"/>
		<path class="st58" d="M256.8,496.9c-1.9,0.1-3.9,0.1-5.8,0.2c-0.5,0-0.9,0.1-1.4,0.2c-0.9-0.8-1.8-1.6-2.7-2.4
			c0.4-0.2,0.8-0.5,1.2-0.5c1.9-0.1,3.8,0,5.7,0C254.9,495.2,255.8,496,256.8,496.9z"/>
		<path class="st59" d="M223.6,474.5c-0.9-0.7-1.7-1.5-2.6-2.2c0.5-0.2,1-0.4,1.5-0.4c1.8-0.1,3.7,0,5.5-0.1
			c0.9,0.8,1.9,1.7,2.8,2.5c-0.4,0.1-0.8,0.2-1.1,0.2C227.7,474.5,225.7,474.5,223.6,474.5z"/>
		<path class="st18" d="M223.6,474.5c2,0,4.1,0,6.1,0c0.4,0,0.8-0.1,1.1-0.2c1,0.8,1.9,1.6,2.9,2.4c-2,0.1-3.9,0.1-5.9,0.2
			c-0.4,0-0.9,0.2-1.3,0.2C225.6,476.3,224.6,475.4,223.6,474.5z"/>
		<path class="st32" d="M244.8,493c-1-0.8-1.9-1.6-2.9-2.4c0.5-0.1,0.9-0.2,1.4-0.2c1.9-0.1,3.9-0.1,5.8-0.2c1,0.9,2,1.7,2.9,2.6
			c-2,0-4,0-6,0C245.6,492.7,245.2,492.9,244.8,493z"/>
		<path class="st60" d="M290.4,565.4c-0.3-0.5-0.6-0.9-1-1.4c0.4-0.2,0.7-0.4,1.1-0.4c2.6,0,5.3,0,7.9,0c0.6,0,1.2,0,1.8,0
			c0,0.5,0.1,0.9,0.1,1.2c0,0.1,0,0.3,0,0.4c-2.4,0-4.8,0-7.2,0C292.1,565.2,291.3,565.3,290.4,565.4z"/>
		<path class="st8" d="M238.1,487.2c-1.1-0.9-2.1-1.9-3.2-2.8c2,0,4,0,6,0c0.4,0,0.8-0.2,1.2-0.3c0.9,0.8,1.8,1.6,2.7,2.4
			c-2,0-3.9,0-5.9,0C238.5,486.5,238,486.4,238.1,487.2z"/>
		<path class="st16" d="M290.4,565.4c0.9-0.1,1.7-0.2,2.6-0.2c2.4,0,4.8,0,7.2,0c0,0.7,0,1.4,0,2.2c-1.7,0-3.3,0-5,0
			c-0.3-0.2-0.7-0.5-1-0.5C292.8,566.7,291.4,566.5,290.4,565.4z"/>
		<path class="st61" d="M300.3,564.8c0-0.4-0.1-0.7-0.1-1.2c-0.6,0-1.2,0-1.8,0c-2.6,0-5.3,0-7.9,0c-0.4,0-0.7,0.3-1.1,0.4
			c-0.2-0.6-0.3-1.3-0.5-1.9c3.4,0,6.8,0,10.2,0c0.4,0,0.9,0.2,1.3,0.3C300.4,563.2,300.3,564,300.3,564.8z"/>
		<path class="st15" d="M280.6,509.5c0.3-0.6,0.2-1-0.3-1.4c-0.3-0.3-0.6-0.6-0.9-1c0.4-0.1,0.7-0.2,1.1-0.2c2,0,3.9,0,5.9,0
			c0.4,0.4,0.9,0.7,1.4,1.1c-0.5,0.6-0.9,1.1-1.3,1.6C284.4,509.6,282.5,509.5,280.6,509.5z"/>
		<path class="st10" d="M226.6,477.1c0.4-0.1,0.9-0.2,1.3-0.2c2-0.1,3.9-0.1,5.9-0.2c0.8,0.7,1.6,1.4,2.4,2.1
			c-1.5,0.1-2.9,0.1-4.4,0.2c-0.9,0-1.9,0.1-2.8,0.2C228.2,478.5,227.4,477.8,226.6,477.1z"/>
		<path class="st62" d="M280.6,509.5c1.9,0,3.9,0.1,5.8,0.1c-0.5,0.9-1,1.9-1.6,2.8c-0.4-0.1-0.8-0.2-1.3-0.2c-1.4,0-2.8,0-4.1,0
			C279.8,511.3,280.2,510.4,280.6,509.5z"/>
		<path class="st35" d="M238.1,487.2c-0.1-0.7,0.4-0.7,0.9-0.7c2,0,3.9,0,5.9,0c0.8,0.7,1.5,1.3,2.3,2c-1.6,0.1-3.2,0.1-4.9,0.2
			c-0.8,0-1.6,0.1-2.3,0.2C239.4,488.3,238.7,487.7,238.1,487.2z"/>
		<path class="st63" d="M281.7,536.5c-0.2-0.7-0.5-1.4-0.7-2.2c0.4-0.1,0.7-0.3,1.1-0.3c1.3,0,2.7,0,4,0c0.3,0.6,0.5,1.2,0.8,1.9
			c0.2-0.4,0.3-0.8,0.4-1.2c2-0.7,2.4-0.4,2.4,1.5c-2.3,0-4.5,0-6.8,0C282.5,536.2,282.1,536.4,281.7,536.5z"/>
		<path class="st44" d="M277.4,505.2c-0.7-0.8-1.5-1.6-2.2-2.4c2.3,0,4.6,0,6.9,0c0.7,0.7,1.4,1.4,2.2,2.2c-1.8,0-3.6,0-5.4,0
			C278.4,505,277.9,505.1,277.4,505.2z"/>
		<path class="st64" d="M233,482.7c-0.7-0.6-1.4-1.1-2.1-1.7c0.5-0.1,1-0.2,1.5-0.2c1.9-0.1,3.8-0.1,5.7-0.2
			c0.7,0.6,1.4,1.3,2.2,1.9c-0.4,0.1-0.8,0.2-1.1,0.2C237.1,482.7,235,482.7,233,482.7z"/>
		<path class="st65" d="M294.5,560.2c-0.3-0.2-0.7-0.5-1-0.5c-1.3-0.1-2.7,0-4,0c0.1-0.4,0.2-0.8,0.3-1.2c0.1-0.5,0.2-1,0.3-1.7
			c0.9,0,1.8,0,2.6,0c2.4,0,1.9-0.2,2,1.9C294.7,559.2,294.6,559.7,294.5,560.2z"/>
		<path class="st66" d="M277.4,505.2c0.5-0.1,1-0.2,1.5-0.2c1.8,0,3.6,0,5.4,0c0.7,0.6,1.4,1.3,2.1,1.9c-2,0-3.9,0-5.9,0
			c-0.4,0-0.7,0.2-1.1,0.2C278.7,506.5,278.1,505.9,277.4,505.2z"/>
		<path class="st67" d="M286.1,534c-1.3,0-2.7,0-4,0c-0.4,0-0.7,0.2-1.1,0.3c-0.3-1-0.6-2-0.9-2.9c1.7,0,3.5,0,5.2,0
			C285.6,532.2,285.9,533.1,286.1,534z"/>
		<path class="st56" d="M285.3,542.2c0-1.5-1.7-1.6-2.2-2.6c1.9,0,3.9-0.1,5.8,0c0.4,0,0.8,0.4,1.2,0.7c0.1,0.6,0.2,1.1,0.2,1.7
			c-0.6,0-1.2,0-1.8,0C287.5,542,286.4,542.1,285.3,542.2z"/>
		<path class="st68" d="M278.2,517.9c0.2-1,0.3-2.1,0.5-3.1c1.7-0.1,3.5-0.2,5.2-0.2c-0.2,1.2-0.4,2.4-0.6,3.6
			c-0.3-0.3-0.5-0.9-0.8-0.9c-1.2-0.1-2.4-0.1-3.5,0C278.7,517.3,278.5,517.7,278.2,517.9z"/>
		<path class="st69" d="M228.1,471.8c-1.8,0-3.7,0-5.5,0.1c-0.5,0-1,0.3-1.5,0.4c-0.7-0.6-1.4-1.3-2.2-1.9c0.4-0.1,0.8-0.2,1.2-0.2
			c2,0,4,0,6.1,0C226.8,470.7,227.4,471.2,228.1,471.8z"/>
		<path class="st70" d="M244.8,493c0.4-0.1,0.8-0.2,1.2-0.3c2,0,4,0,6,0c0.6,0.6,1.2,1.1,1.8,1.7c-1.9,0-3.8,0-5.7,0
			c-0.4,0-0.8,0.3-1.2,0.5C246.2,494.3,245.5,493.6,244.8,493z"/>
		<path class="st71" d="M281.7,536.5c0.4-0.1,0.8-0.3,1.2-0.3c2.3,0,4.5,0,6.8,0c0.1,0.5,0.1,1,0.2,1.4c0,0.1,0,0.2,0,0.3
			c-2.6,0-5.1,0-7.7,0C282,537.4,281.9,536.9,281.7,536.5z"/>
		<path class="st72" d="M226.2,470.1c-2,0-4,0-6.1,0.1c-0.4,0-0.8,0.1-1.2,0.2c-0.6-0.6-1.3-1.1-1.9-1.7c0.4-0.1,0.8-0.2,1.2-0.2
			c2,0,4,0,6.1-0.1C224.9,469,225.5,469.6,226.2,470.1z"/>
		<path class="st73" d="M283.9,514.6c-1.7,0.1-3.5,0.2-5.2,0.2c0.2-0.9,0.5-1.8,0.7-2.6c1.4,0,2.8,0,4.1,0c0.4,0,0.8,0.1,1.3,0.2
			C284.5,513.1,284.2,513.8,283.9,514.6z"/>
		<path class="st33" d="M233,482.7c2,0,4.1,0,6.1,0c0.4,0,0.8-0.1,1.1-0.2c0.6,0.5,1.3,1.1,1.9,1.6c-0.4,0.1-0.8,0.2-1.2,0.3
			c-2,0-4,0-6,0C234.3,483.8,233.6,483.2,233,482.7z"/>
		<path class="st34" d="M240,488.9c0.8-0.1,1.6-0.2,2.3-0.2c1.6-0.1,3.2-0.1,4.9-0.2c0.6,0.6,1.3,1.1,1.9,1.7
			c-1.9,0.1-3.9,0.1-5.8,0.2c-0.5,0-0.9,0.1-1.4,0.2C241.3,490,240.6,489.4,240,488.9z"/>
		<path class="st20" d="M238.1,480.5c-1.9,0.1-3.8,0.1-5.7,0.2c-0.5,0-1,0.1-1.5,0.2c-0.6-0.6-1.3-1.1-1.9-1.7
			c0.9-0.1,1.9-0.2,2.8-0.2c1.5-0.1,2.9-0.1,4.4-0.2C236.8,479.4,237.4,480,238.1,480.5z"/>
		<path class="st74" d="M282.2,537.9c2.6,0,5.1,0,7.7,0c0.1,0.8,0.2,1.6,0.2,2.4c-0.4-0.2-0.8-0.7-1.2-0.7c-1.9-0.1-3.9,0-5.8,0
			C282.8,539,282.5,538.4,282.2,537.9z"/>
		<path class="st75" d="M279.1,527.8c-0.2-0.8-0.3-1.6-0.5-2.4c1.7,0,3.4,0,5,0c0.2,0.9,0.4,1.8,0.7,2.6
			C282.6,527.9,280.9,527.8,279.1,527.8z"/>
		<path class="st76" d="M278.4,523.4c-0.1-0.8-0.1-1.6-0.2-2.4c1.7,0,3.3,0,5,0c0.1,0.8,0.2,1.6,0.2,2.4
			C281.7,523.4,280.1,523.4,278.4,523.4z"/>
		<path class="st77" d="M288.7,552.7c-0.3-0.7-0.6-1.4-1-2.2c0.4-0.1,0.7-0.2,1.1-0.2c1.4,0,2.8,0,4.3,0c0.3,0.7,0.6,1.5,0.9,2.2
			c-0.7,0-1.3,0-2,0C290.9,552.5,289.8,552.6,288.7,552.7z"/>
		<path class="st13" d="M294.7,558.7c-0.1-2.1,0.4-1.9-2-1.9c-0.9,0-1.7,0-2.6,0c-0.1,0.6-0.2,1.1-0.3,1.7c-0.1-1.3-0.2-2.5-0.3-3.8
			c1.7,0,3.4,0,5.1,0C294.6,556,294.7,557.4,294.7,558.7z"/>
		<path class="st78" d="M294.5,554.6c-1.7,0-3.4,0-5.1,0c-0.2-0.6-0.5-1.3-0.7-1.9c1.1-0.1,2.2-0.2,3.2-0.2c0.7,0,1.3,0,2,0
			C294.2,553.2,294.3,553.9,294.5,554.6z"/>
		<path class="st79" d="M295.7,572.6c-0.1-0.7-0.2-1.4-0.3-2.1c1.7,0,3.4,0,5.1,0c0.2,0.8,0.3,1.6,0.5,2.4
			C299.2,572.8,297.4,572.7,295.7,572.6z"/>
		<path class="st80" d="M272.7,500.1c1.1-0.1,2.2-0.1,3.3-0.2c1.1-0.1,2.1-0.1,3.2-0.2c0.5,0.5,1,1.1,1.5,1.6c-1.8,0-3.6,0-5.4,0
			c-0.4,0-0.8,0.2-1.2,0.3C273.6,501.1,273.1,500.6,272.7,500.1z"/>
		<path class="st81" d="M279.1,527.8c1.7,0.1,3.5,0.2,5.2,0.2c0.2,0.6,0.3,1.3,0.5,1.9c-1.7-0.1-3.5-0.2-5.2-0.2
			C279.5,529,279.3,528.4,279.1,527.8z"/>
		<path class="st82" d="M295.7,572.6c1.7,0.1,3.5,0.2,5.2,0.2c0.2,0.6,0.4,1.1,0.5,1.7c-1.8,0-3.5,0-5.3,0
			C296,573.9,295.9,573.3,295.7,572.6z"/>
		<path class="st83" d="M285.3,542.2c1.1-0.1,2.2-0.2,3.2-0.3c0.6,0,1.2,0,1.8,0c0.2,0.7,0.3,1.4,0.5,2.2c-1.7-0.1-3.5-0.2-5.2-0.2
			C285.5,543.3,285.4,542.7,285.3,542.2z"/>
		<path class="st84" d="M274.1,501.6c0.4-0.1,0.8-0.2,1.2-0.3c1.8,0,3.6,0,5.4,0c0.5,0.5,1,1,1.4,1.4c-2.3,0-4.6,0-6.9,0
			C274.8,502.4,274.4,502,274.1,501.6z"/>
		<path class="st85" d="M278.4,523.4c1.7,0,3.3,0,5,0c0.1,0.6,0.2,1.3,0.3,1.9c-1.7,0-3.4,0-5,0
			C278.6,524.7,278.5,524.1,278.4,523.4z"/>
		<path class="st86" d="M283.2,521c-1.7,0-3.3,0-5,0c0-0.6,0-1.3,0-1.9c1.7,0,3.3,0,5,0C283.2,519.8,283.2,520.4,283.2,521z"/>
		<path class="st87" d="M283.2,519.1c-1.7,0-3.3,0-5,0c0-0.4,0-0.8,0-1.2c0.3-0.2,0.5-0.6,0.8-0.7c1.2-0.1,2.4-0.1,3.5,0
			c0.3,0,0.5,0.6,0.8,0.9C283.3,518.5,283.2,518.8,283.2,519.1z"/>
		<path class="st88" d="M287.3,549.4c-0.2-0.7-0.5-1.4-0.7-2.2c1.8,0,3.5,0,5.3,0c0.2,0.6,0.5,1.3,0.7,1.9c-1.7-0.1-3.3-0.1-5-0.2
			C287.5,548.9,287.4,549.2,287.3,549.4z"/>
		<path class="st50" d="M291.8,547.2c-1.8,0-3.5,0-5.3,0c-0.2-0.6-0.3-1.1-0.5-1.7c1.8,0.1,3.5,0.2,5.3,0.2
			C291.5,546.2,291.6,546.7,291.8,547.2z"/>
		<path class="st89" d="M279.6,529.7c1.7,0.1,3.5,0.2,5.2,0.2c0.2,0.5,0.3,1,0.5,1.4c-1.7,0-3.5,0-5.2,0
			C279.9,530.8,279.8,530.2,279.6,529.7z"/>
		<path class="st40" d="M300.4,570.5c-1.7,0-3.4,0-5.1,0c0-0.6-0.1-1.1-0.1-1.7c1.7,0,3.3,0,5,0
			C300.3,569.4,300.4,569.9,300.4,570.5z"/>
		<path class="st90" d="M291.3,545.8c-1.8-0.1-3.5-0.2-5.3-0.2c-0.1-0.6-0.3-1.1-0.4-1.7c1.7,0.1,3.5,0.2,5.2,0.2
			C291,544.6,291.2,545.2,291.3,545.8z"/>
		<path class="st91" d="M287.3,549.4c0.1-0.2,0.2-0.4,0.3-0.4c1.7,0,3.3,0.1,5,0.2c0.2,0.4,0.4,0.8,0.6,1.2c-1.4,0-2.8,0-4.3,0
			c-0.4,0-0.7,0.2-1.1,0.2C287.6,550.2,287.4,549.8,287.3,549.4z"/>
		<path class="st55" d="M300.3,568.8c-1.7,0-3.3,0-5,0c0-0.5,0-1,0-1.4c1.7,0,3.3,0,5,0C300.2,567.8,300.2,568.3,300.3,568.8z"/>
		<path class="st92" d="M300.3,568.8c0-0.5,0-1,0-1.4c0-0.7,0-1.4,0-2.2c0-0.1,0-0.3,0-0.4c0.1-0.8,0.2-1.6,0.2-2.4
			c0.4-0.8,0.8-1.6,1.2-2.4c0.5-0.9,1.1-1.8,1.6-2.7c0.5-1,1-2.1,1.5-3.1c0.2-0.7,0.5-1.4,0.7-2.2c0.1-0.9,0.1-1.8,0.2-2.6
			c0-0.9,0-1.8,0-2.6c-0.2-1-0.5-1.9-0.7-2.9c-0.4-0.9-0.8-1.8-1.2-2.6c-0.6-1.4-1.7-2.4-3-3.2c0.4,1.3,0.9,2.5,1.3,3.8
			c0.2,0.7,0.3,1.4,0.5,2.1c0.1,2,0.2,4,0.3,6c-0.1,0.7-0.2,1.4-0.3,2.2c-0.2,0.7-0.4,1.5-0.6,2.2c-0.4,0.9-0.8,1.8-1.2,2.6
			c-0.5,1-1,1.9-1.5,2.9c-1.4,1.1-2.8,2.2-4.9,1.9c0.1-0.5,0.1-0.9,0.2-1.4c0.1-0.5,0.2-1,0.2-1.5c-0.1-1.4-0.1-2.7-0.2-4.1
			c-0.2-0.7-0.4-1.4-0.5-2.2c-0.3-0.7-0.6-1.5-0.9-2.2c-0.2-0.4-0.4-0.8-0.6-1.2c-0.2-0.6-0.5-1.3-0.7-1.9c-0.2-0.5-0.3-1-0.5-1.4
			c-0.2-0.6-0.3-1.1-0.5-1.7c-0.2-0.7-0.3-1.4-0.5-2.2c-0.1-0.6-0.2-1.1-0.2-1.7c-0.1-0.8-0.2-1.6-0.2-2.4c0-0.1,0-0.2,0-0.3
			c0-0.7,0-1.3,0-2c0.1-1.4,0.1-2.8,0.2-4.2c0.2-1,0.4-2,0.6-2.9c-0.1-0.1-0.3-0.1-0.4-0.2c-0.6,1.1-1.3,2.2-1.9,3.3
			c-0.4,1-0.7,2.1-1.1,3.1c-0.1,0.4-0.3,0.7-0.4,1.2c-0.3-0.7-0.5-1.3-0.8-1.9c-0.3-0.9-0.5-1.8-0.8-2.6c-0.2-0.5-0.3-1-0.5-1.4
			c-0.2-0.6-0.3-1.3-0.5-1.9c-0.2-0.9-0.4-1.8-0.7-2.6c-0.1-0.6-0.2-1.3-0.3-1.9c-0.1-0.8-0.2-1.6-0.2-2.4c0-0.6,0-1.3,0-1.9
			c0-0.3,0.1-0.6,0.1-1c0.2-1.2,0.4-2.4,0.6-3.6c0.3-0.7,0.6-1.4,0.9-2.2c0.5-0.9,1-1.9,1.6-2.8c0.4-0.5,0.8-1,1.3-1.6
			c-0.5-0.4-0.9-0.8-1.4-1.1c-0.7-0.6-1.4-1.3-2.1-1.9c-0.7-0.7-1.4-1.4-2.2-2.2c-0.5-0.5-1-1-1.4-1.4c-0.5-0.5-1-1.1-1.5-1.6
			c-0.3-0.3-0.7-0.7-1-1c-0.5-0.6-1-1.1-1.6-1.7c-0.9-1-1.7-2-2.6-2.9c-0.3-0.3-1.1-0.6-1.5-0.5c-4.1,1.1-8.2,2.2-12.3,3.3
			c-0.4,0.1-0.8,0.2-1.1,0.3c-0.8,0.3-1.6,0.3-2.2-0.3c-1-0.8-1.9-1.6-2.9-2.5c-0.6-0.6-1.2-1.1-1.8-1.7c-1-0.9-2-1.7-2.9-2.6
			c-0.6-0.6-1.3-1.1-1.9-1.7c-0.8-0.7-1.5-1.3-2.3-2c-0.9-0.8-1.8-1.6-2.7-2.4c-0.6-0.5-1.3-1.1-1.9-1.6c-0.7-0.6-1.4-1.3-2.2-1.9
			c-0.6-0.6-1.3-1.1-1.9-1.7c-0.8-0.7-1.6-1.4-2.4-2.1c-1-0.8-1.9-1.6-2.9-2.4c-0.9-0.8-1.9-1.7-2.8-2.5c-0.6-0.6-1.3-1.1-1.9-1.7
			c-0.6-0.6-1.3-1.1-1.9-1.7c-3.1-2.7-6.2-5.5-9.3-8.2c-3.4-3-6.8-5.9-10.2-8.9c-0.3-0.3-0.6-0.7-0.8-1
			c-4.9-11.2-9.7-22.5-14.5-33.7c-0.1-0.2-0.1-0.4,0-0.7c18.5,15.3,37,30.6,55.5,45.9c0.1-0.1,0.2-0.2,0.3-0.3
			c-1.1-1-2.2-2.1-3.3-3.1c-5.8-5.3-11.5-10.6-17.3-15.9c-10.6-9.7-21.2-19.5-31.8-29.2c-2.5-2.3-4.9-4.5-7.4-6.8
			c-0.4-0.3-0.7-0.8-0.9-1.2c-5.6-12.9-11.1-25.8-16.7-38.7c-0.1-0.1-0.1-0.3,0.1-0.6c27.4,25.8,54.8,51.6,82.3,77.4
			c0.1-0.1,0.2-0.2,0.3-0.2c-0.2-0.2-0.4-0.5-0.6-0.7c-6.9-7-13.7-14-20.6-21c-7.7-7.8-15.3-15.7-23-23.5
			c-7.6-7.7-15.1-15.4-22.7-23.1c-7.1-7.3-14.3-14.6-21.4-21.9c-0.3-0.3-0.6-0.7-0.8-1.1c-5.4-12.4-10.7-24.9-16-37.5
			c0.4,0.2,0.8,0.4,1.1,0.7c5.6,5.4,11.1,10.8,16.7,16.2c8.2,8,16.4,15.9,24.6,23.9c5.1,5,10.2,9.9,15.3,14.9c8.2,8,16.5,16,24.7,24
			c5.2,5,10.3,10,15.5,15c2.4,2.4,4.9,4.7,7.4,7.1c0.4-0.9,0.1-1.5-0.5-2.1c-5.8-6-11.6-12-17.4-18c-9.3-9.6-18.6-19.2-27.8-28.8
			c-6.7-6.9-13.4-13.9-20.1-20.8c-9.1-9.5-18.3-18.9-27.4-28.4c-6.2-6.4-12.4-12.8-18.6-19.3c-0.4-0.4-0.8-0.9-1-1.5
			c-10.7-23.7-21.5-47.4-32.2-71c-1-2.1-1.9-4.3-2.8-6.5c0.2,0.1,0.4,0.2,0.6,0.4c13,14.5,26,29,39,43.4
			c8.9,9.9,17.8,19.7,26.6,29.6c11,12.3,22.1,24.6,33.1,36.8c8.1,9.1,16.3,18.1,24.5,27.2c11.7,13,23.4,26,35.1,39.1
			c5.1,5.6,10.1,11.3,15.3,16.9c1.1,1.2,2.6,2.1,4.1,2.8c2,1,3.8,0.5,5.2-1.3c1.1-1.5,2.1-3.2,3-4.9c0.9-1.7,1.6-3.4,2.3-5.1
			c0-0.1,0-0.2,0-0.3c-1.3,0-2.7,0-4.3,0c3.9-3.2,6.1-7.3,7.4-11.8c2.2-7.4,1.1-14.5-2.2-21.3c-2-4.1-4.5-7.7-8.4-10.3
			c-4.1-2.7-8.6-3.3-13.3-2.3c-0.4,0.1-0.8,0.2-1.3,0.3c1.2-2.2,3-3.7,4.7-5.3c1.5-1.4,2.8-1.7,4.8-0.8c3.8,1.7,7.8,2.1,11.9,1
			c0.9-0.2,1.8-0.6,2.5-1.1c1.8-1.3,3.8-1.4,5.8-0.9c4.4,1,8.1,3.4,11.4,6.3c2.9,2.5,5.6,5.3,8.6,7.8c4.8,4,10.4,6.1,16.7,6.5
			c1.5,0.1,2.9,0.2,4.4,0.3c-0.2,1.2-1.2,1.2-2.1,1.4c-3.5,0.8-7,1.5-10.4,2.5c-3.6,1.1-6.7,3-8.4,6.6c-1.9,4-1.7,7.8,1.2,11.3
			c0.1,0.2,0.2,0.3,0.3,0.5c0,0,0,0.1,0,0.3c-1.1-0.2-2.3-0.3-3.5-0.5c1.1,5.8,2.2,11.4,5.5,16.3c1.3,1.9,2.8,3.3,5.2,3.8
			c1.5,0.3,3,0,4.3-0.7c1.8-1.1,3.6-2.2,5-3.7c9.3-10.2,18.4-20.4,27.6-30.6c12.7-14.1,25.4-28.2,38.1-42.4
			c10.5-11.7,21-23.4,31.6-35.1c12-13.4,24.1-26.8,36.1-40.2c10.5-11.7,21-23.4,31.6-35.1c1.7-1.9,3.4-3.8,5.1-5.7
			c0.3-0.3,0.4-0.8,0.6-1.1c0.2,0.1,0.4,0.3,0.5,0.4c-0.1,0.3-0.2,0.7-0.3,1c-9.1,20-18.1,40-27.2,60c-2.4,5.2-4.7,10.4-7.1,15.6
			c-0.6,1.3-1.7,2.4-2.7,3.5c-8.7,9-17.5,18-26.2,27.1c-6.8,7-13.6,14-20.3,21c-6.8,7.1-13.7,14.1-20.5,21.2
			c-6.7,7-13.4,13.9-20.2,20.9c-6.6,6.8-13.2,13.6-19.7,20.5c-0.5,0.5-0.5,1.3-0.8,2c0.1,0.1,0.3,0.1,0.4,0.2
			c34.2-33.2,68.4-66.3,102.9-99.8c-1.1,2.6-2.1,4.9-3.1,7.2c-4.5,10.4-8.9,20.7-13.4,31.1c-0.2,0.5-0.5,0.9-0.9,1.3
			c-4.1,4.2-8.3,8.5-12.4,12.7c-8.2,8.3-16.4,16.7-24.5,25c-7.6,7.7-15.1,15.4-22.7,23.1c-7.7,7.8-15.3,15.7-23,23.5
			c-1,1-1.9,1.9-2.8,2.9c-0.3,0.3-0.4,0.7-0.6,1c0.1,0.1,0.2,0.1,0.3,0.2c26.8-25.2,53.5-50.4,80.3-75.6c0.1,0,0.1,0.1,0.2,0.1
			c-0.5,1.2-1,2.4-1.6,3.7c-5.1,11.8-10.2,23.6-15.3,35.4c-0.2,0.5-0.6,1.1-1,1.5c-9.6,8.9-19.3,17.8-28.9,26.6
			c-10.2,9.4-20.3,18.7-30.5,28.1c-0.4,0.3-0.8,0.6-1.2,0.9c0.1,0.1,0.2,0.3,0.4,0.4c18.8-15.5,37.5-31,56.3-46.5
			c0.1,0.1,0.1,0.1,0.2,0.2c-1.2,2.7-2.3,5.4-3.5,8.1c-2.9,6.6-5.7,13.3-8.6,19.9c-0.2,0.5-0.6,1.1-1,1.4
			c-7.9,7.1-15.8,14.1-23.7,21.2c-0.9,0.8-1.7,1.6-2.6,2.3c-0.4,0.4-0.9,0.8-1.3,1.2c-0.7,0.6-1.4,1.3-2.2,1.9
			c-0.8,0.8-1.7,1.5-2.5,2.3c-0.8,0.7-1.5,1.4-2.3,2.1c-0.8,0.7-1.7,1.5-2.5,2.2c-0.7,0.7-1.4,1.3-2.2,2c-0.7,0.6-1.4,1.3-2.2,1.9
			c-0.6,0.6-1.3,1.2-1.9,1.7c-1,0.8-1.9,1.7-2.9,2.5c-0.6,0.6-1.3,1.2-1.9,1.7c-0.6,0.6-1.3,1.1-1.9,1.7c-0.7,0.6-1.3,1.2-2,1.8
			c-0.5,0.4-0.9,0.8-1.4,1.2c-0.5,0.5-1.1,1-1.6,1.4c-0.8,0.7-1.6,1.4-2.4,2.2c-0.8,1-1.8,1.2-3,0.6c-0.6-0.3-1.4-0.4-2-0.5
			c-3-0.8-6-1.7-9-2.5c-2.5-0.7-2.5-0.7-4.1,1.4c-0.3,0.4-0.6,0.8-0.9,1.3c-0.4,0.6-0.8,1.1-1.2,1.7c-0.6,0.8-1.2,1.6-1.9,2.4
			c-0.7,0.8-1.3,1.6-2,2.4c-0.5,0.6-1,1.1-1.4,1.7c-0.5,0.6-1,1.1-1.4,1.7c-1.3,0.9-0.8,1.8-0.1,2.7c0.4,0.9,0.8,1.8,1.2,2.6
			c0.2,0.6,0.5,1.3,0.7,1.9c0.2,0.7,0.5,1.5,0.7,2.2c0.2,0.9,0.5,1.7,0.7,2.6c0.2,0.7,0.3,1.4,0.5,2.1c0.1,0.8,0.2,1.6,0.4,2.4
			c0.1,0.6,0.2,1.3,0.3,1.9c0.1,1,0.2,2.1,0.3,3.1c0,0.6,0,1.3,0,1.9c-0.1,1.1-0.1,2.2-0.2,3.4c-0.1,0.6-0.2,1.1-0.2,1.7
			c-0.2-0.2-0.4-0.3-0.5-0.5c-0.3-0.8-0.6-1.6-0.9-2.4c-0.3-0.7-0.6-1.5-0.9-2.2c-1-2.4-2.8-4.5-4.1-4.6c0.4,0.8,0.8,1.6,1.2,2.3
			c0.4,0.8,0.8,1.5,1.2,2.3c0.3,0.9,0.6,1.8,1,2.6c0.2,0.8,0.5,1.6,0.7,2.5c0.1,0.5,0.2,0.9,0.3,1.4c0.2,1,0.3,2.1,0.5,3.1
			c0,0.4,0,0.8,0,1.2c0,0.9,0,1.8,0,2.6c-0.1,0.9-0.2,1.8-0.2,2.6c-0.1,0.5-0.2,1-0.2,1.4c-0.1,0.5-0.2,1-0.3,1.4
			c-0.3,0.8-0.5,1.6-0.8,2.4c-0.2-0.2-0.3-0.5-0.5-0.7c-0.1-0.6-0.2-1.3-0.3-1.9c-0.2-0.6-0.3-1.1-0.5-1.7c-0.2-1.2-0.3-2.4-0.5-3.6
			c-0.2-0.9-0.5-1.8-0.7-2.6c-0.2-0.8-0.5-1.6-0.7-2.4c-0.2-0.6-0.5-1.1-0.7-1.7c-0.5-0.9-0.9-1.8-1.4-2.6c-0.2-0.5-0.5-1-0.7-1.4
			c-0.6-0.9-1.2-1.8-1.8-2.7c-0.7-0.9-1.5-1.7-2.2-2.6c-0.7-1-1.3-2.1-2-3.1c-0.6-1.4-1.1-2.9-1.7-4.3c0.1-1.6,0.3-3.1,0.4-4.8
			c-1.4,1.8-2.1,3.7-1.6,6c0.2,1,0.5,2,0.7,3.1c0.5,1,1,2.1,1.4,3.1c0.6,1,1.3,1.9,1.9,2.9c0.6,0.9,1.1,1.7,1.7,2.6
			c0.3,0.6,0.6,1.1,1,1.7c0.4,0.7,0.8,1.5,1.2,2.2c0.2,0.5,0.5,1.1,0.7,1.6c0.3,0.9,0.7,1.8,1,2.7c0.2,0.9,0.5,1.7,0.7,2.6
			c0.2,0.8,0.3,1.6,0.5,2.4c-0.1,0.8-0.1,1.6-0.2,2.4c-0.2,0.7-0.3,1.4-0.5,2.2c-0.2,0.7-0.5,1.4-0.7,2.2c-0.2,0.5-0.4,1-0.6,1.4
			c-0.3,0.6-0.6,1.1-1,1.7c-0.4,0.6-0.8,1.1-1.2,1.7c-0.7,0.6-1.4,1.1-2.1,1.7c-1.7,0.5-3.5,1-5.2,1.6c-0.5,0.2-1,0.5-1.5,0.8
			c-0.6,0.4-1.1,0.8-1.7,1.2c-0.6,0.6-1.2,1.3-1.8,1.9c-0.5,0.7-1,1.5-1.5,2.2c-0.3,0.5-0.5,1-0.8,1.4c-0.3,0.7-0.6,1.4-0.9,2.2
			c-0.2,0.6-0.3,1.1-0.5,1.7c-0.2,0.8-0.4,1.6-0.6,2.4c-0.1-0.1-0.3-0.3-0.4-0.4c-0.2-0.6-0.4-1.1-0.5-1.7c-0.2-0.8-0.3-1.6-0.5-2.4
			C300.4,569.9,300.3,569.4,300.3,568.8z M295.7,401.8c-0.9,3.5-2,6.8-3.9,9.6c-1.9,2.8-4.1,5.4-6,8.1c0.8-0.2,1.7-0.5,2.7-0.8
			c0,0.1,0.1,0.2,0.1,0.2c-2.2,2.4-4.3,4.8-6.7,7.5c0.9-0.2,1.5-0.4,2.2-0.5c-2.5,3.3-3.7,7-5.2,10.9c1.8-1.6,3.4-2.9,5.2-4.5
			c-2.3,7.6-4.6,14.8-6.8,22c0.1,0,0.2,0.1,0.2,0.1c0.8-1.3,1.7-2.5,2.5-3.8c-1,4.6-1.1,9.2-0.9,14c1.9-3.1,2.1-3.3,3.5-3.4
			c0.1,0.3,0.3,0.7,0.3,1c0.5,5,1.1,9.9,1.4,14.9c0.2,3.1-0.1,6.3-0.2,9.4c-0.2,3.7,0.8,7.2,1.6,10.7c0.4,1.8,0.8,3.6,1.3,5.4
			c0.4-0.6,0.6-1.2,0.8-1.8c0.6-2.6,1-5.3,1.7-7.9c0.5-1.9,1.2-3.9,3-5c1.2-0.7,1.2-1.6,1-2.6c-0.5-2.3-0.3-4.5,1.1-6.3
			c1.4-1.7,0.9-3.1,0.6-4.9c-0.4-1.7-0.4-3.6-0.5-5.6c4.1,1.8,7.9,2.2,11.9,0.4c-8.2-3.6-13.1-9.3-13.6-18.6c2.8,3,6,4.4,10.2,3.6
			c-3.7-2-5.2-5.3-6.1-8.9c-1.1-4.3-0.9-8.7-0.4-13.1c0.7-5.9,2.2-11.6,4.1-17.3c1.4-4,1.9-8.2,1.8-12.5c-0.1-4-0.7-7.9-0.9-11.9
			c-0.2-4.3,0.2-8.5,1.1-12.7c0.6-2.7,1.4-5.4,2.2-8.2c-2.4,0.9-4.9,0.6-7.2-0.6c-2.2-1.1-4.3-2.4-6.2-3.5c3.6,7.2,6.8,14.7,6,23.2
			c-0.2,2-0.6,4.1-1.2,6c-1,3.1-2.8,5.9-5.4,8.1c0.6,0,1,0.1,1.4,0C293.4,402.6,294.4,402.2,295.7,401.8z M297.9,358.5
			c0.2,0.6,0.3,1.4,0.7,1.9c0.6,0.6,1.4,0.3,2-0.2c0.3-0.2,0.7-0.2,1.1-0.2c0.9-0.1,2,0.4,3-0.8c-2.4,0.5-4-0.7-5.6-1.7
			c-1.1-0.7-2.3-0.5-3.3,0.5C296.3,359.5,297.5,357.7,297.9,358.5z"/>
		<path class="st14" d="M333.3,497c0.3-0.4,0.6-0.9,0.9-1.3c1.6-2.1,1.6-2.1,4.1-1.4c3,0.8,6,1.6,9,2.5c-0.4,0.1-0.8,0.2-1.1,0.2
			C341.9,497,337.6,497,333.3,497z"/>
		<path class="st93" d="M325.9,549.1c0.1,0.6,0.2,1.3,0.3,1.9c-1.4,0-2.9,0-4.3,0c0.2-0.7,0.3-1.4,0.5-2.2
			C323.5,549,324.7,549,325.9,549.1z"/>
		<path class="st94" d="M328.3,532.6c0.3,0.8,0.6,1.6,0.9,2.4c-0.6,0.2-1.5-0.5-1.9,0.5c-0.2-0.8-0.5-1.6-0.7-2.5
			C327.2,532.9,327.8,532.7,328.3,532.6z"/>
		<path class="st14" d="M260.2,496.9c4.1-1.1,8.2-2.3,12.3-3.3c0.4-0.1,1.2,0.2,1.5,0.5c0.9,0.9,1.7,2,2.6,2.9c-5.2,0-10.5,0-15.7,0
			C260.6,497,260.4,496.9,260.2,496.9z"/>
		<path class="st95" d="M299.2,559.7c0.5-1,1-1.9,1.5-2.9c0.5,0,0.9-0.1,1.4,0c0.4,0.1,0.8,0.3,1.2,0.5c-0.5,0.9-1.1,1.8-1.6,2.7
			C300.9,559.9,300,559.8,299.2,559.7z"/>
		<path class="st96" d="M287.3,534.7c0.4-1,0.7-2.1,1.1-3.1c0.6-0.1,1.1-0.2,1.7-0.2c-0.1,1.4-0.2,2.8-0.2,4.2c0,0.7,0,1.3,0,2
			c-0.1-0.5-0.1-1-0.2-1.4C289.7,534.3,289.3,534.1,287.3,534.7z"/>
		<path class="st97" d="M295.7,401.8c-1.3,0.4-2.3,0.8-3.4,1.1c-0.4,0.1-0.8,0-1.4,0c2.6-2.3,4.4-5,5.4-8.1c0.6-1.9,1-4,1.2-6
			c0.8-8.5-2.4-16.1-6-23.2c1.9,1.1,4,2.4,6.2,3.5c2.3,1.2,4.8,1.5,7.2,0.6c-0.7,2.8-1.6,5.4-2.2,8.2c-0.9,4.2-1.3,8.4-1.1,12.7
			c0.2,4,0.8,7.9,0.9,11.9c0.1,4.2-0.4,8.4-1.8,12.5c-1.9,5.6-3.4,11.4-4.1,17.3c-0.5,4.4-0.7,8.7,0.4,13.1c0.9,3.6,2.4,6.8,6.1,8.9
			c-4.2,0.9-7.4-0.5-10.2-3.6c0.5,9.3,5.4,15,13.6,18.6c-4.1,1.8-7.8,1.3-11.9-0.4c0.2,2,0.2,3.8,0.5,5.6c0.4,1.8,0.8,3.2-0.6,4.9
			c-1.4,1.7-1.6,4-1.1,6.3c0.2,1,0.1,1.9-1,2.6c-1.8,1.1-2.5,3.1-3,5c-0.7,2.6-1.1,5.3-1.7,7.9c-0.1,0.6-0.4,1.2-0.8,1.8
			c-0.4-1.8-0.9-3.6-1.3-5.4c-0.8-3.5-1.7-7-1.6-10.7c0.1-3.1,0.4-6.3,0.2-9.4c-0.3-5-0.9-10-1.4-14.9c0-0.3-0.2-0.7-0.3-1
			c-1.3,0.1-1.5,0.3-3.5,3.4c-0.2-4.8,0-9.4,0.9-14c-0.8,1.3-1.7,2.5-2.5,3.8c-0.1,0-0.2-0.1-0.2-0.1c2.2-7.2,4.4-14.4,6.8-22
			c-1.8,1.5-3.4,2.9-5.2,4.5c1.5-3.9,2.7-7.7,5.2-10.9c-0.7,0.2-1.3,0.3-2.2,0.5c2.4-2.7,4.6-5.1,6.7-7.5c0-0.1-0.1-0.2-0.1-0.2
			c-1,0.3-2,0.6-2.7,0.8c2-2.6,4.2-5.2,6-8.1C293.7,408.5,294.9,405.3,295.7,401.8z"/>
		<path class="st98" d="M297.9,358.5c-0.4-0.8-1.6,1-2.2-0.6c1-0.9,2.2-1.2,3.3-0.5c1.6,1,3.2,2.2,5.6,1.7c-1.1,1.2-2.1,0.7-3,0.8
			c-0.4,0-0.8,0-1.1,0.2c-0.7,0.5-1.4,0.9-2,0.2C298.2,360,298.2,359.2,297.9,358.5z"/>
		<path class="st99" d="M317.5,533.3c-0.6-0.9-1.1-1.7-1.7-2.6c1-0.1,2-0.2,3-0.3c0.6,0.9,1.2,1.8,1.8,2.7
			C319.6,533.1,318.6,533.2,317.5,533.3z"/>
		<path class="st100" d="M305,543.8c0.2,1,0.5,1.9,0.7,2.9c-2.7,0-2.7,0-2.6,2.6c-0.1,0.2-0.1,0.3-0.2,0.5c-0.1-2-0.2-4-0.3-6
			C303.4,543.8,304.2,543.8,305,543.8z"/>
		<path class="st101" d="M318.8,530.4c-1,0.1-2,0.2-3,0.3c-0.6-1-1.3-1.9-1.9-2.9c0.9,0,1.8,0,2.7,0
			C317.3,528.6,318.1,529.5,318.8,530.4z"/>
		<path class="st102" d="M324.2,541.2c0.2,0.9,0.5,1.8,0.7,2.6c-1,0.1-1.9,0.2-2.9,0.3c-0.2-0.9-0.5-1.7-0.7-2.6
			C322.3,541.4,323.3,541.3,324.2,541.2z"/>
		<path class="st103" d="M303.4,557.3c-0.4-0.2-0.8-0.4-1.2-0.5c-0.4-0.1-0.9,0-1.4,0c0.4-0.9,0.8-1.8,1.2-2.6c1,0,1.9,0,2.9,0
			C304.3,555.2,303.9,556.2,303.4,557.3z"/>
		<path class="st104" d="M316.6,527.8c-0.9,0-1.8,0-2.7,0c-0.5-1-1-2.1-1.4-3.1c0.7,0,1.4,0,2.1,0
			C315.3,525.7,315.9,526.7,316.6,527.8z"/>
		<path class="st105" d="M314.6,524.6c-0.7,0-1.4,0-2.1,0c-0.2-1-0.5-2-0.7-3.1c0-0.3,0-0.6,0-0.8c0.1-0.3,0.2-0.6,0.3-0.8
			c0.3,0.1,0.6,0.3,0.9,0.4C313.5,521.8,314,523.2,314.6,524.6z"/>
		<path class="st106" d="M325.9,549.1c-1.2-0.1-2.4-0.2-3.5-0.2c0.1-0.8,0.1-1.6,0.2-2.4c0.8-0.1,1.6-0.2,2.4-0.4
			c0.2,0.6,0.3,0.9,0.4,1.3C325.6,548,325.7,548.5,325.9,549.1z"/>
		<path class="st107" d="M321.4,534.5c0.5,0.9,0.9,1.8,1.4,2.6c-1,0-2.1,0-3.1,0.1c-0.4-0.7-0.8-1.5-1.2-2.2
			c0.3-0.2,0.5-0.4,0.8-0.5C320,534.4,320.7,534.5,321.4,534.5z"/>
		<path class="st108" d="M324.2,541.2c-1,0.1-1.9,0.2-2.9,0.3c-0.3-0.9-0.7-1.8-1-2.7c1.1,0,2.1,0,3.2,0
			C323.7,539.6,324,540.4,324.2,541.2z"/>
		<path class="st109" d="M302.9,549.8c0.1-0.2,0.1-0.3,0.2-0.5c0.9,0,1.7,0,2.6,0c-0.1,0.9-0.1,1.8-0.2,2.6c-1,0-2,0-3,0
			C302.7,551.3,302.8,550.5,302.9,549.8z"/>
		<path class="st110" d="M325.4,547.4c-0.1-0.4-0.2-0.7-0.4-1.3c-0.8,0.1-1.6,0.2-2.4,0.4c-0.2-0.8-0.3-1.6-0.5-2.4
			c1-0.1,1.9-0.2,2.9-0.3C325.1,545,325.2,546.2,325.4,547.4z"/>
		<path class="st111" d="M325.7,530.4c-0.4-0.8-0.8-1.5-1.2-2.3c-0.4-0.8-0.8-1.6-1.2-2.3c1.3,0.2,3.1,2.2,4.1,4.6
			C326.9,530.4,326.3,530.4,325.7,530.4z"/>
		<path class="st112" d="M305.7,549.4c-0.9,0-1.7,0-2.6,0c0-2.6,0-2.6,2.6-2.6C305.7,547.6,305.7,548.5,305.7,549.4z"/>
		<path class="st113" d="M302.6,552c1,0,2,0,3,0c-0.2,0.7-0.5,1.4-0.7,2.2c-1,0-1.9,0-2.9,0C302.1,553.4,302.4,552.7,302.6,552z"/>
		<path class="st114" d="M323.5,538.8c-1.1,0-2.1,0-3.2,0c-0.2-0.5-0.5-1.1-0.7-1.6c1,0,2.1,0,3.1-0.1
			C323,537.7,323.3,538.2,323.5,538.8z"/>
		<path class="st115" d="M305,543.8c-0.8,0-1.6,0-2.4,0c-0.2-0.7-0.3-1.4-0.5-2.1c0.3-0.9,1.1-0.4,1.7-0.5
			C304.2,542.1,304.6,543,305,543.8z"/>
		<path class="st94" d="M321.4,534.5c-0.7,0-1.4,0-2.1,0c-0.3,0-0.5,0.3-0.8,0.5c-0.3-0.6-0.6-1.1-1-1.7c1-0.1,2.1-0.2,3.1-0.2
			C320.9,533.5,321.1,534,321.4,534.5z"/>
		<path class="st116" d="M312.9,520.3c-0.3-0.1-0.6-0.3-0.9-0.4c-0.1,0.3-0.2,0.6-0.3,0.8c0,0.3,0,0.6,0,0.8c-0.5-2.3,0.2-4.3,1.6-6
			C313.2,517.2,313.1,518.7,312.9,520.3z"/>
		<path class="st117" d="M303.8,541.2c-0.6,0.2-1.4-0.4-1.7,0.5c-0.4-1.3-0.9-2.5-1.3-3.8C302.1,538.8,303.2,539.8,303.8,541.2z"/>
		<path class="st118" d="M325.7,530.4c0.6,0,1.2,0,1.8,0c0.3,0.7,0.6,1.5,0.9,2.2c-0.6,0.2-1.1,0.3-1.7,0.5
			C326.3,532.2,326,531.3,325.7,530.4z"/>
		<path class="st119" d="M290.1,531.4c-0.6,0.1-1.1,0.2-1.7,0.2c0.6-1.1,1.3-2.2,1.9-3.3c0.1,0.1,0.3,0.1,0.4,0.2
			C290.5,529.4,290.3,530.4,290.1,531.4z"/>
	</g>
</g>
</svg>
